<?xml version="1.0" encoding="utf-8" standalone="no"?>
<!DOCTYPE svg PUBLIC "-//W3C//DTD SVG 1.1//EN"
  "http://www.w3.org/Graphics/SVG/1.1/DTD/svg11.dtd">
<svg xmlns:xlink="http://www.w3.org/1999/xlink" width="508.001008pt" height="234.558581pt" viewBox="0 0 508.001008 234.558581" xmlns="http://www.w3.org/2000/svg" version="1.1">
 <metadata>
  <rdf:RDF xmlns:dc="http://purl.org/dc/elements/1.1/" xmlns:cc="http://creativecommons.org/ns#" xmlns:rdf="http://www.w3.org/1999/02/22-rdf-syntax-ns#">
   <cc:Work>
    <dc:type rdf:resource="http://purl.org/dc/dcmitype/StillImage"/>
    <dc:date>2026-07-14T19:42:02.326059</dc:date>
    <dc:format>image/svg+xml</dc:format>
    <dc:creator>
     <cc:Agent>
      <dc:title>Matplotlib v3.11.0, https://matplotlib.org/</dc:title>
     </cc:Agent>
    </dc:creator>
   </cc:Work>
  </rdf:RDF>
 </metadata>
 <defs>
  <style type="text/css">*{stroke-linejoin: round; stroke-linecap: butt}</style>
 </defs>
 <g id="figure_1">
  <g id="patch_1">
   <path d="M 0 234.558581 
L 508.001008 234.558581 
L 508.001008 0 
L 0 0 
z
" style="fill: #ffffff"/>
  </g>
  <g id="axes_1">
   <g id="patch_2">
    <path d="M 49.793008 196.052562 
L 257.153008 196.052562 
L 257.153008 19.796563 
L 49.793008 19.796563 
z
" style="fill: #ffffff"/>
   </g>
   <g id="matplotlib.axis_1">
    <g id="xtick_1">
     <g id="line2d_1">
      <defs>
       <path id="m5386f1e495" d="M 0 0 
L 0 3.5 
" style="stroke: #000000; stroke-width: 0.8"/>
      </defs>
      <g>
       <use xlink:href="#m5386f1e495" x="73.719162" y="196.052562" style="stroke: #000000; stroke-width: 0.8"/>
      </g>
     </g>
     <g id="text_1">
      <text style="font-size: 8px; font-family: 'Times New Roman', 'DejaVu Serif', serif" transform="translate(57.07798 216.972709) rotate(-30)">k-NN</text>
     </g>
    </g>
    <g id="xtick_2">
     <g id="line2d_2">
      <g>
       <use xlink:href="#m5386f1e495" x="113.596085" y="196.052562" style="stroke: #000000; stroke-width: 0.8"/>
      </g>
     </g>
     <g id="text_2">
      <text style="font-size: 8px; font-family: 'Times New Roman', 'DejaVu Serif', serif" transform="translate(81.555889 225.863334) rotate(-30)">DoRothEA</text>
     </g>
    </g>
    <g id="xtick_3">
     <g id="line2d_3">
      <g>
       <use xlink:href="#m5386f1e495" x="153.473008" y="196.052562" style="stroke: #000000; stroke-width: 0.8"/>
      </g>
     </g>
     <g id="text_3">
      <text style="font-size: 8px; font-family: 'Times New Roman', 'DejaVu Serif', serif" transform="translate(131.446231 220.082084) rotate(-30)">random</text>
     </g>
    </g>
    <g id="xtick_4">
     <g id="line2d_4">
      <g>
       <use xlink:href="#m5386f1e495" x="193.349931" y="196.052562" style="stroke: #000000; stroke-width: 0.8"/>
      </g>
     </g>
     <g id="text_4">
      <text style="font-size: 8px; font-family: 'Times New Roman', 'DejaVu Serif', serif" transform="translate(178.251357 216.075047) rotate(-30)">perm</text>
     </g>
    </g>
    <g id="xtick_5">
     <g id="line2d_5">
      <g>
       <use xlink:href="#m5386f1e495" x="233.226854" y="196.052562" style="stroke: #000000; stroke-width: 0.8"/>
      </g>
     </g>
     <g id="text_5">
      <text style="font-size: 8px; font-family: 'Times New Roman', 'DejaVu Serif', serif" transform="translate(216.200291 217.195209) rotate(-30)">0-hop</text>
     </g>
    </g>
   </g>
   <g id="matplotlib.axis_2">
    <g id="ytick_1">
     <g id="line2d_6">
      <defs>
       <path id="m71e44a9d54" d="M 0 0 
L -3.5 0 
" style="stroke: #000000; stroke-width: 0.8"/>
      </defs>
      <g>
       <use xlink:href="#m71e44a9d54" x="49.793008" y="181.605349" style="stroke: #000000; stroke-width: 0.8"/>
      </g>
     </g>
     <g id="text_6">
      <text style="font-size: 8px; font-family: 'Times New Roman', 'DejaVu Serif', serif; text-anchor: end" x="42.793008" y="184.378787" transform="rotate(-0 42.793008 184.378787)">−80</text>
     </g>
    </g>
    <g id="ytick_2">
     <g id="line2d_7">
      <g>
       <use xlink:href="#m71e44a9d54" x="49.793008" y="152.710923" style="stroke: #000000; stroke-width: 0.8"/>
      </g>
     </g>
     <g id="text_7">
      <text style="font-size: 8px; font-family: 'Times New Roman', 'DejaVu Serif', serif; text-anchor: end" x="42.793008" y="155.484361" transform="rotate(-0 42.793008 155.484361)">−60</text>
     </g>
    </g>
    <g id="ytick_3">
     <g id="line2d_8">
      <g>
       <use xlink:href="#m71e44a9d54" x="49.793008" y="123.816497" style="stroke: #000000; stroke-width: 0.8"/>
      </g>
     </g>
     <g id="text_8">
      <text style="font-size: 8px; font-family: 'Times New Roman', 'DejaVu Serif', serif; text-anchor: end" x="42.793008" y="126.589934" transform="rotate(-0 42.793008 126.589934)">−40</text>
     </g>
    </g>
    <g id="ytick_4">
     <g id="line2d_9">
      <g>
       <use xlink:href="#m71e44a9d54" x="49.793008" y="94.922071" style="stroke: #000000; stroke-width: 0.8"/>
      </g>
     </g>
     <g id="text_9">
      <text style="font-size: 8px; font-family: 'Times New Roman', 'DejaVu Serif', serif; text-anchor: end" x="42.793008" y="97.695508" transform="rotate(-0 42.793008 97.695508)">−20</text>
     </g>
    </g>
    <g id="ytick_5">
     <g id="line2d_10">
      <g>
       <use xlink:href="#m71e44a9d54" x="49.793008" y="66.027644" style="stroke: #000000; stroke-width: 0.8"/>
      </g>
     </g>
     <g id="text_10">
      <text style="font-size: 8px; font-family: 'Times New Roman', 'DejaVu Serif', serif; text-anchor: end" x="42.793008" y="68.801082" transform="rotate(-0 42.793008 68.801082)">0</text>
     </g>
    </g>
    <g id="ytick_6">
     <g id="line2d_11">
      <g>
       <use xlink:href="#m71e44a9d54" x="49.793008" y="37.133218" style="stroke: #000000; stroke-width: 0.8"/>
      </g>
     </g>
     <g id="text_11">
      <text style="font-size: 8px; font-family: 'Times New Roman', 'DejaVu Serif', serif; text-anchor: end" x="42.793008" y="39.906656" transform="rotate(-0 42.793008 39.906656)">20</text>
     </g>
    </g>
    <g id="text_12">
     <text style="font-size: 9px; font-family: 'Times New Roman', 'DejaVu Serif', serif" transform="translate(14.123936 148.038547) rotate(-90)">Relative improvement</text>
     <text style="font-size: 9px; font-family: 'Times New Roman', 'DejaVu Serif', serif" transform="translate(23.664814 158.937688) rotate(-90)">(graph − linear) / linear  (%)</text>
    </g>
   </g>
   <g id="line2d_12">
    <path d="M 49.793008 66.027644 
L 257.153008 66.027644 
" clip-path="url(#pdbe3fd16af)" style="fill: none; stroke: #1a1a1a; stroke-linecap: square"/>
   </g>
   <g id="patch_3">
    <path d="M 49.793008 196.052562 
L 49.793008 19.796563 
" style="fill: none; stroke: #000000; stroke-width: 0.8; stroke-linejoin: miter; stroke-linecap: square"/>
   </g>
   <g id="patch_4">
    <path d="M 257.153008 196.052562 
L 257.153008 19.796563 
" style="fill: none; stroke: #000000; stroke-width: 0.8; stroke-linejoin: miter; stroke-linecap: square"/>
   </g>
   <g id="patch_5">
    <path d="M 49.793008 196.052562 
L 257.153008 196.052562 
" style="fill: none; stroke: #000000; stroke-width: 0.8; stroke-linejoin: miter; stroke-linecap: square"/>
   </g>
   <g id="patch_6">
    <path d="M 49.793008 19.796563 
L 257.153008 19.796563 
" style="fill: none; stroke: #000000; stroke-width: 0.8; stroke-linejoin: miter; stroke-linecap: square"/>
   </g>
   <g id="PathCollection_1">
    <path d="M 84.681754 79.102937 
C 85.195318 79.102937 85.687916 78.898896 86.05106 78.535752 
C 86.414205 78.172608 86.618246 77.680009 86.618246 77.166446 
C 86.618246 76.652882 86.414205 76.160284 86.05106 75.797139 
C 85.687916 75.433995 85.195318 75.229954 84.681754 75.229954 
C 84.16819 75.229954 83.675592 75.433995 83.312448 75.797139 
C 82.949303 76.160284 82.745262 76.652882 82.745262 77.166446 
C 82.745262 77.680009 82.949303 78.172608 83.312448 78.535752 
C 83.675592 78.898896 84.16819 79.102937 84.681754 79.102937 
z
" clip-path="url(#pdbe3fd16af)" style="fill: #2c6fb0; fill-opacity: 0.78"/>
    <path d="M 124.741039 78.178316 
C 125.254603 78.178316 125.747201 77.974275 126.110346 77.611131 
C 126.47349 77.247986 126.677531 76.755388 126.677531 76.241824 
C 126.677531 75.728261 126.47349 75.235662 126.110346 74.872518 
C 125.747201 74.509373 125.254603 74.305332 124.741039 74.305332 
C 124.227476 74.305332 123.734877 74.509373 123.371733 74.872518 
C 123.008589 75.235662 122.804548 75.728261 122.804548 76.241824 
C 122.804548 76.755388 123.008589 77.247986 123.371733 77.611131 
C 123.734877 77.974275 124.227476 78.178316 124.741039 78.178316 
z
" clip-path="url(#pdbe3fd16af)" style="fill: #2c6fb0; fill-opacity: 0.78"/>
    <path d="M 146.585124 78.380577 
C 147.098688 78.380577 147.591286 78.176536 147.95443 77.813392 
C 148.317575 77.450247 148.521616 76.957649 148.521616 76.444085 
C 148.521616 75.930522 148.317575 75.437923 147.95443 75.074779 
C 147.591286 74.711634 147.098688 74.507593 146.585124 74.507593 
C 146.07156 74.507593 145.578962 74.711634 145.215818 75.074779 
C 144.852673 75.437923 144.648632 75.930522 144.648632 76.444085 
C 144.648632 76.957649 144.852673 77.450247 145.215818 77.813392 
C 145.578962 78.176536 146.07156 78.380577 146.585124 78.380577 
z
" clip-path="url(#pdbe3fd16af)" style="fill: #2c6fb0; fill-opacity: 0.78"/>
    <path d="M 184.744085 78.221657 
C 185.257649 78.221657 185.750247 78.017616 186.113392 77.654472 
C 186.476536 77.291328 186.680577 76.798729 186.680577 76.285166 
C 186.680577 75.771602 186.476536 75.279004 186.113392 74.915859 
C 185.750247 74.552715 185.257649 74.348674 184.744085 74.348674 
C 184.230522 74.348674 183.737923 74.552715 183.374779 74.915859 
C 183.011635 75.279004 182.807594 75.771602 182.807594 76.285166 
C 182.807594 76.798729 183.011635 77.291328 183.374779 77.654472 
C 183.737923 78.017616 184.230522 78.221657 184.744085 78.221657 
z
" clip-path="url(#pdbe3fd16af)" style="fill: #2c6fb0; fill-opacity: 0.78"/>
    <path d="M 235.926987 78.149421 
C 236.440551 78.149421 236.933149 77.94538 237.296294 77.582236 
C 237.659438 77.219092 237.863479 76.726493 237.863479 76.21293 
C 237.863479 75.699366 237.659438 75.206768 237.296294 74.843623 
C 236.933149 74.480479 236.440551 74.276438 235.926987 74.276438 
C 235.413424 74.276438 234.920825 74.480479 234.557681 74.843623 
C 234.194537 75.206768 233.990496 75.699366 233.990496 76.21293 
C 233.990496 76.726493 234.194537 77.219092 234.557681 77.582236 
C 234.920825 77.94538 235.413424 78.149421 235.926987 78.149421 
z
" clip-path="url(#pdbe3fd16af)" style="fill: #2c6fb0; fill-opacity: 0.78"/>
    <path d="M 75.476364 73.627444 
C 75.989928 73.627444 76.482526 73.423403 76.845671 73.060258 
C 77.208815 72.697114 77.412856 72.204516 77.412856 71.690952 
C 77.412856 71.177388 77.208815 70.68479 76.845671 70.321646 
C 76.482526 69.958501 75.989928 69.75446 75.476364 69.75446 
C 74.962801 69.75446 74.470202 69.958501 74.107058 70.321646 
C 73.743913 70.68479 73.539872 71.177388 73.539872 71.690952 
C 73.539872 72.204516 73.743913 72.697114 74.107058 73.060258 
C 74.470202 73.423403 74.962801 73.627444 75.476364 73.627444 
z
" clip-path="url(#pdbe3fd16af)" style="fill: #2c6fb0; fill-opacity: 0.78"/>
    <path d="M 125.001131 74.32091 
C 125.514694 74.32091 126.007293 74.116869 126.370437 73.753725 
C 126.733581 73.39058 126.937622 72.897982 126.937622 72.384418 
C 126.937622 71.870855 126.733581 71.378256 126.370437 71.015112 
C 126.007293 70.651968 125.514694 70.447927 125.001131 70.447927 
C 124.487567 70.447927 123.994968 70.651968 123.631824 71.015112 
C 123.26868 71.378256 123.064639 71.870855 123.064639 72.384418 
C 123.064639 72.897982 123.26868 73.39058 123.631824 73.753725 
C 123.994968 74.116869 124.487567 74.32091 125.001131 74.32091 
z
" clip-path="url(#pdbe3fd16af)" style="fill: #2c6fb0; fill-opacity: 0.78"/>
    <path d="M 162.43277 74.277568 
C 162.946334 74.277568 163.438933 74.073527 163.802077 73.710383 
C 164.165221 73.347239 164.369262 72.85464 164.369262 72.341077 
C 164.369262 71.827513 164.165221 71.334915 163.802077 70.97177 
C 163.438933 70.608626 162.946334 70.404585 162.43277 70.404585 
C 161.919207 70.404585 161.426608 70.608626 161.063464 70.97177 
C 160.70032 71.334915 160.496279 71.827513 160.496279 72.341077 
C 160.496279 72.85464 160.70032 73.347239 161.063464 73.710383 
C 161.426608 74.073527 161.919207 74.277568 162.43277 74.277568 
z
" clip-path="url(#pdbe3fd16af)" style="fill: #2c6fb0; fill-opacity: 0.78"/>
    <path d="M 222.217725 74.42204 
C 222.731288 74.42204 223.223887 74.217999 223.587031 73.854855 
C 223.950175 73.491711 224.154216 72.999112 224.154216 72.485549 
C 224.154216 71.971985 223.950175 71.479387 223.587031 71.116242 
C 223.223887 70.753098 222.731288 70.549057 222.217725 70.549057 
C 221.704161 70.549057 221.211562 70.753098 220.848418 71.116242 
C 220.485274 71.479387 220.281233 71.971985 220.281233 72.485549 
C 220.281233 72.999112 220.485274 73.491711 220.848418 73.854855 
C 221.211562 74.217999 221.704161 74.42204 222.217725 74.42204 
z
" clip-path="url(#pdbe3fd16af)" style="fill: #2c6fb0; fill-opacity: 0.78"/>
    <path d="M 76.095133 47.145702 
C 76.608697 47.145702 77.101295 46.941661 77.464439 46.578517 
C 77.827584 46.215372 78.031625 45.722774 78.031625 45.20921 
C 78.031625 44.695647 77.827584 44.203048 77.464439 43.839904 
C 77.101295 43.47676 76.608697 43.272719 76.095133 43.272719 
C 75.581569 43.272719 75.088971 43.47676 74.725827 43.839904 
C 74.362682 44.203048 74.158641 44.695647 74.158641 45.20921 
C 74.158641 45.722774 74.362682 46.215372 74.725827 46.578517 
C 75.088971 46.941661 75.581569 47.145702 76.095133 47.145702 
z
" clip-path="url(#pdbe3fd16af)" style="fill: #2c6fb0; fill-opacity: 0.78"/>
    <path d="M 112.580505 47.477988 
C 113.094069 47.477988 113.586667 47.273947 113.949811 46.910803 
C 114.312956 46.547658 114.516997 46.05506 114.516997 45.541496 
C 114.516997 45.027933 114.312956 44.535334 113.949811 44.17219 
C 113.586667 43.809046 113.094069 43.605005 112.580505 43.605005 
C 112.066941 43.605005 111.574343 43.809046 111.211199 44.17219 
C 110.848054 44.535334 110.644013 45.027933 110.644013 45.541496 
C 110.644013 46.05506 110.848054 46.547658 111.211199 46.910803 
C 111.574343 47.273947 112.066941 47.477988 112.580505 47.477988 
z
" clip-path="url(#pdbe3fd16af)" style="fill: #2c6fb0; fill-opacity: 0.78"/>
    <path d="M 153.21382 47.26128 
C 153.727384 47.26128 154.219982 47.057239 154.583127 46.694094 
C 154.946271 46.33095 155.150312 45.838352 155.150312 45.324788 
C 155.150312 44.811224 154.946271 44.318626 154.583127 43.955482 
C 154.219982 43.592337 153.727384 43.388296 153.21382 43.388296 
C 152.700257 43.388296 152.207658 43.592337 151.844514 43.955482 
C 151.481369 44.318626 151.277328 44.811224 151.277328 45.324788 
C 151.277328 45.838352 151.481369 46.33095 151.844514 46.694094 
C 152.207658 47.057239 152.700257 47.26128 153.21382 47.26128 
z
" clip-path="url(#pdbe3fd16af)" style="fill: #2c6fb0; fill-opacity: 0.78"/>
    <path d="M 203.878965 47.506882 
C 204.392528 47.506882 204.885127 47.302841 205.248271 46.939697 
C 205.611415 46.576553 205.815456 46.083954 205.815456 45.570391 
C 205.815456 45.056827 205.611415 44.564229 205.248271 44.201084 
C 204.885127 43.83794 204.392528 43.633899 203.878965 43.633899 
C 203.365401 43.633899 202.872803 43.83794 202.509658 44.201084 
C 202.146514 44.564229 201.942473 45.056827 201.942473 45.570391 
C 201.942473 46.083954 202.146514 46.576553 202.509658 46.939697 
C 202.872803 47.302841 203.365401 47.506882 203.878965 47.506882 
z
" clip-path="url(#pdbe3fd16af)" style="fill: #2c6fb0; fill-opacity: 0.78"/>
    <path d="M 242.127538 47.492435 
C 242.641102 47.492435 243.1337 47.288394 243.496845 46.92525 
C 243.859989 46.562106 244.06403 46.069507 244.06403 45.555943 
C 244.06403 45.04238 243.859989 44.549781 243.496845 44.186637 
C 243.1337 43.823493 242.641102 43.619452 242.127538 43.619452 
C 241.613975 43.619452 241.121376 43.823493 240.758232 44.186637 
C 240.395088 44.549781 240.191047 45.04238 240.191047 45.555943 
C 240.191047 46.069507 240.395088 46.562106 240.758232 46.92525 
C 241.121376 47.288394 241.613975 47.492435 242.127538 47.492435 
z
" clip-path="url(#pdbe3fd16af)" style="fill: #2c6fb0; fill-opacity: 0.78"/>
    <path d="M 74.572709 41.218553 
C 75.322817 41.218553 76.042303 40.920532 76.572709 40.390126 
C 77.103116 39.85972 77.401137 39.140233 77.401137 38.390126 
C 77.401137 37.640018 77.103116 36.920532 76.572709 36.390126 
C 76.042303 35.85972 75.322817 35.561699 74.572709 35.561699 
C 73.822602 35.561699 73.103116 35.85972 72.572709 36.390126 
C 72.042303 36.920532 71.744282 37.640018 71.744282 38.390126 
C 71.744282 39.140233 72.042303 39.85972 72.572709 40.390126 
C 73.103116 40.920532 73.822602 41.218553 74.572709 41.218553 
z
" clip-path="url(#pdbe3fd16af)" style="fill: #27ae60; fill-opacity: 0.78"/>
    <path d="M 123.539688 42.01315 
C 124.289795 42.01315 125.009282 41.715129 125.539688 41.184723 
C 126.070094 40.654316 126.368115 39.93483 126.368115 39.184723 
C 126.368115 38.434615 126.070094 37.715129 125.539688 37.184723 
C 125.009282 36.654316 124.289795 36.356295 123.539688 36.356295 
C 122.78958 36.356295 122.070094 36.654316 121.539688 37.184723 
C 121.009282 37.715129 120.711261 38.434615 120.711261 39.184723 
C 120.711261 39.93483 121.009282 40.654316 121.539688 41.184723 
C 122.070094 41.715129 122.78958 42.01315 123.539688 42.01315 
z
" clip-path="url(#pdbe3fd16af)" style="fill: #27ae60; fill-opacity: 0.78"/>
    <path d="M 146.811687 41.377472 
C 147.561794 41.377472 148.28128 41.079451 148.811687 40.549045 
C 149.342093 40.018639 149.640114 39.299153 149.640114 38.549045 
C 149.640114 37.798937 149.342093 37.079451 148.811687 36.549045 
C 148.28128 36.018639 147.561794 35.720618 146.811687 35.720618 
C 146.061579 35.720618 145.342093 36.018639 144.811687 36.549045 
C 144.28128 37.079451 143.983259 37.798937 143.983259 38.549045 
C 143.983259 39.299153 144.28128 40.018639 144.811687 40.549045 
C 145.342093 41.079451 146.061579 41.377472 146.811687 41.377472 
z
" clip-path="url(#pdbe3fd16af)" style="fill: #27ae60; fill-opacity: 0.78"/>
    <path d="M 244.699735 42.056491 
C 245.449842 42.056491 246.169328 41.75847 246.699735 41.228064 
C 247.230141 40.697658 247.528162 39.978172 247.528162 39.228064 
C 247.528162 38.477956 247.230141 37.75847 246.699735 37.228064 
C 246.169328 36.697658 245.449842 36.399637 244.699735 36.399637 
C 243.949627 36.399637 243.230141 36.697658 242.699735 37.228064 
C 242.169328 37.75847 241.871307 38.477956 241.871307 39.228064 
C 241.871307 39.978172 242.169328 40.697658 242.699735 41.228064 
C 243.230141 41.75847 243.949627 42.056491 244.699735 42.056491 
z
" clip-path="url(#pdbe3fd16af)" style="fill: #27ae60; fill-opacity: 0.78"/>
    <path d="M 78.363698 61.087263 
C 78.877262 61.087263 79.36986 60.883222 79.733005 60.520077 
C 80.096149 60.156933 80.30019 59.664335 80.30019 59.150771 
C 80.30019 58.637207 80.096149 58.144609 79.733005 57.781465 
C 79.36986 57.41832 78.877262 57.214279 78.363698 57.214279 
C 77.850135 57.214279 77.357536 57.41832 76.994392 57.781465 
C 76.631247 58.144609 76.427206 58.637207 76.427206 59.150771 
C 76.427206 59.664335 76.631247 60.156933 76.994392 60.520077 
C 77.357536 60.883222 77.850135 61.087263 78.363698 61.087263 
z
" clip-path="url(#pdbe3fd16af)" style="fill: #2c6fb0; fill-opacity: 0.78"/>
    <path d="M 111.839301 58.573448 
C 112.352865 58.573448 112.845463 58.369407 113.208608 58.006262 
C 113.571752 57.643118 113.775793 57.15052 113.775793 56.636956 
C 113.775793 56.123392 113.571752 55.630794 113.208608 55.26765 
C 112.845463 54.904505 112.352865 54.700464 111.839301 54.700464 
C 111.325738 54.700464 110.833139 54.904505 110.469995 55.26765 
C 110.106851 55.630794 109.90281 56.123392 109.90281 56.636956 
C 109.90281 57.15052 110.106851 57.643118 110.469995 58.006262 
C 110.833139 58.369407 111.325738 58.573448 111.839301 58.573448 
z
" clip-path="url(#pdbe3fd16af)" style="fill: #2c6fb0; fill-opacity: 0.78"/>
    <path d="M 157.251828 58.963522 
C 157.765392 58.963522 158.25799 58.759481 158.621135 58.396337 
C 158.984279 58.033193 159.18832 57.540594 159.18832 57.027031 
C 159.18832 56.513467 158.984279 56.020869 158.621135 55.657724 
C 158.25799 55.29458 157.765392 55.090539 157.251828 55.090539 
C 156.738265 55.090539 156.245666 55.29458 155.882522 55.657724 
C 155.519378 56.020869 155.315337 56.513467 155.315337 57.027031 
C 155.315337 57.540594 155.519378 58.033193 155.882522 58.396337 
C 156.245666 58.759481 156.738265 58.963522 157.251828 58.963522 
z
" clip-path="url(#pdbe3fd16af)" style="fill: #2c6fb0; fill-opacity: 0.78"/>
    <path d="M 183.124494 58.486764 
C 183.638058 58.486764 184.130656 58.282723 184.4938 57.919579 
C 184.856945 57.556435 185.060986 57.063836 185.060986 56.550273 
C 185.060986 56.036709 184.856945 55.544111 184.4938 55.180966 
C 184.130656 54.817822 183.638058 54.613781 183.124494 54.613781 
C 182.61093 54.613781 182.118332 54.817822 181.755188 55.180966 
C 181.392043 55.544111 181.188002 56.036709 181.188002 56.550273 
C 181.188002 57.063836 181.392043 57.556435 181.755188 57.919579 
C 182.118332 58.282723 182.61093 58.486764 183.124494 58.486764 
z
" clip-path="url(#pdbe3fd16af)" style="fill: #2c6fb0; fill-opacity: 0.78"/>
    <path d="M 242.030717 58.631236 
C 242.544281 58.631236 243.036879 58.427195 243.400024 58.064051 
C 243.763168 57.700907 243.967209 57.208308 243.967209 56.694745 
C 243.967209 56.181181 243.763168 55.688583 243.400024 55.325438 
C 243.036879 54.962294 242.544281 54.758253 242.030717 54.758253 
C 241.517154 54.758253 241.024555 54.962294 240.661411 55.325438 
C 240.298267 55.688583 240.094226 56.181181 240.094226 56.694745 
C 240.094226 57.208308 240.298267 57.700907 240.661411 58.064051 
C 241.024555 58.427195 241.517154 58.631236 242.030717 58.631236 
z
" clip-path="url(#pdbe3fd16af)" style="fill: #2c6fb0; fill-opacity: 0.78"/>
    <path d="M 81.47436 51.985518 
C 81.987924 51.985518 82.480522 51.781477 82.843666 51.418333 
C 83.206811 51.055189 83.410852 50.56259 83.410852 50.049027 
C 83.410852 49.535463 83.206811 49.042865 82.843666 48.67972 
C 82.480522 48.316576 81.987924 48.112535 81.47436 48.112535 
C 80.960796 48.112535 80.468198 48.316576 80.105054 48.67972 
C 79.741909 49.042865 79.537868 49.535463 79.537868 50.049027 
C 79.537868 50.56259 79.741909 51.055189 80.105054 51.418333 
C 80.468198 51.781477 80.960796 51.985518 81.47436 51.985518 
z
" clip-path="url(#pdbe3fd16af)" style="fill: #2c6fb0; fill-opacity: 0.78"/>
    <path d="M 109.648515 52.28891 
C 110.162078 52.28891 110.654677 52.084869 111.017821 51.721725 
C 111.380965 51.35858 111.585006 50.865982 111.585006 50.352418 
C 111.585006 49.838855 111.380965 49.346256 111.017821 48.983112 
C 110.654677 48.619968 110.162078 48.415927 109.648515 48.415927 
C 109.134951 48.415927 108.642353 48.619968 108.279208 48.983112 
C 107.916064 49.346256 107.712023 49.838855 107.712023 50.352418 
C 107.712023 50.865982 107.916064 51.35858 108.279208 51.721725 
C 108.642353 52.084869 109.134951 52.28891 109.648515 52.28891 
z
" clip-path="url(#pdbe3fd16af)" style="fill: #2c6fb0; fill-opacity: 0.78"/>
    <path d="M 145.76338 52.433382 
C 146.276944 52.433382 146.769542 52.229341 147.132687 51.866197 
C 147.495831 51.503052 147.699872 51.010454 147.699872 50.49689 
C 147.699872 49.983327 147.495831 49.490728 147.132687 49.127584 
C 146.769542 48.76444 146.276944 48.560399 145.76338 48.560399 
C 145.249817 48.560399 144.757218 48.76444 144.394074 49.127584 
C 144.03093 49.490728 143.826889 49.983327 143.826889 50.49689 
C 143.826889 51.010454 144.03093 51.503052 144.394074 51.866197 
C 144.757218 52.229341 145.249817 52.433382 145.76338 52.433382 
z
" clip-path="url(#pdbe3fd16af)" style="fill: #2c6fb0; fill-opacity: 0.78"/>
    <path d="M 231.474406 52.418935 
C 231.98797 52.418935 232.480568 52.214894 232.843712 51.85175 
C 233.206857 51.488605 233.410898 50.996007 233.410898 50.482443 
C 233.410898 49.96888 233.206857 49.476281 232.843712 49.113137 
C 232.480568 48.749992 231.98797 48.545951 231.474406 48.545951 
C 230.960842 48.545951 230.468244 48.749992 230.1051 49.113137 
C 229.741955 49.476281 229.537914 49.96888 229.537914 50.482443 
C 229.537914 50.996007 229.741955 51.488605 230.1051 51.85175 
C 230.468244 52.214894 230.960842 52.418935 231.474406 52.418935 
z
" clip-path="url(#pdbe3fd16af)" style="fill: #2c6fb0; fill-opacity: 0.78"/>
    <path d="M 73.2982 164.370389 
C 73.811764 164.370389 74.304362 164.166348 74.667507 163.803204 
C 75.030651 163.44006 75.234692 162.947461 75.234692 162.433898 
C 75.234692 161.920334 75.030651 161.427735 74.667507 161.064591 
C 74.304362 160.701447 73.811764 160.497406 73.2982 160.497406 
C 72.784637 160.497406 72.292038 160.701447 71.928894 161.064591 
C 71.56575 161.427735 71.361709 161.920334 71.361709 162.433898 
C 71.361709 162.947461 71.56575 163.44006 71.928894 163.803204 
C 72.292038 164.166348 72.784637 164.370389 73.2982 164.370389 
z
" clip-path="url(#pdbe3fd16af)" style="fill: #2c6fb0; fill-opacity: 0.78"/>
    <path d="M 104.724664 163.460215 
C 105.238227 163.460215 105.730826 163.256174 106.09397 162.89303 
C 106.457114 162.529885 106.661155 162.037287 106.661155 161.523723 
C 106.661155 161.01016 106.457114 160.517561 106.09397 160.154417 
C 105.730826 159.791272 105.238227 159.587231 104.724664 159.587231 
C 104.2111 159.587231 103.718501 159.791272 103.355357 160.154417 
C 102.992213 160.517561 102.788172 161.01016 102.788172 161.523723 
C 102.788172 162.037287 102.992213 162.529885 103.355357 162.89303 
C 103.718501 163.256174 104.2111 163.460215 104.724664 163.460215 
z
" clip-path="url(#pdbe3fd16af)" style="fill: #2c6fb0; fill-opacity: 0.78"/>
    <path d="M 147.142718 163.994762 
C 147.656282 163.994762 148.14888 163.790721 148.512024 163.427576 
C 148.875169 163.064432 149.07921 162.571834 149.07921 162.05827 
C 149.07921 161.544706 148.875169 161.052108 148.512024 160.688964 
C 148.14888 160.325819 147.656282 160.121778 147.142718 160.121778 
C 146.629154 160.121778 146.136556 160.325819 145.773412 160.688964 
C 145.410267 161.052108 145.206226 161.544706 145.206226 162.05827 
C 145.206226 162.571834 145.410267 163.064432 145.773412 163.427576 
C 146.136556 163.790721 146.629154 163.994762 147.142718 163.994762 
z
" clip-path="url(#pdbe3fd16af)" style="fill: #2c6fb0; fill-opacity: 0.78"/>
    <path d="M 195.704435 163.416873 
C 196.217998 163.416873 196.710597 163.212832 197.073741 162.849688 
C 197.436885 162.486544 197.640926 161.993945 197.640926 161.480382 
C 197.640926 160.966818 197.436885 160.474219 197.073741 160.111075 
C 196.710597 159.747931 196.217998 159.54389 195.704435 159.54389 
C 195.190871 159.54389 194.698273 159.747931 194.335128 160.111075 
C 193.971984 160.474219 193.767943 160.966818 193.767943 161.480382 
C 193.767943 161.993945 193.971984 162.486544 194.335128 162.849688 
C 194.698273 163.212832 195.190871 163.416873 195.704435 163.416873 
z
" clip-path="url(#pdbe3fd16af)" style="fill: #2c6fb0; fill-opacity: 0.78"/>
    <path d="M 238.876366 163.532451 
C 239.38993 163.532451 239.882528 163.32841 240.245672 162.965266 
C 240.608817 162.602121 240.812858 162.109523 240.812858 161.595959 
C 240.812858 161.082396 240.608817 160.589797 240.245672 160.226653 
C 239.882528 159.863509 239.38993 159.659468 238.876366 159.659468 
C 238.362802 159.659468 237.870204 159.863509 237.50706 160.226653 
C 237.143915 160.589797 236.939874 161.082396 236.939874 161.595959 
C 236.939874 162.109523 237.143915 162.602121 237.50706 162.965266 
C 237.870204 163.32841 238.362802 163.532451 238.876366 163.532451 
z
" clip-path="url(#pdbe3fd16af)" style="fill: #2c6fb0; fill-opacity: 0.78"/>
    <path d="M 76.978722 61.332865 
C 77.492286 61.332865 77.984884 61.128824 78.348029 60.76568 
C 78.711173 60.402536 78.915214 59.909937 78.915214 59.396374 
C 78.915214 58.88281 78.711173 58.390212 78.348029 58.027067 
C 77.984884 57.663923 77.492286 57.459882 76.978722 57.459882 
C 76.465159 57.459882 75.97256 57.663923 75.609416 58.027067 
C 75.246272 58.390212 75.042231 58.88281 75.042231 59.396374 
C 75.042231 59.909937 75.246272 60.402536 75.609416 60.76568 
C 75.97256 61.128824 76.465159 61.332865 76.978722 61.332865 
z
" clip-path="url(#pdbe3fd16af)" style="fill: #2c6fb0; fill-opacity: 0.78"/>
    <path d="M 104.15438 61.809623 
C 104.667943 61.809623 105.160542 61.605582 105.523686 61.242438 
C 105.88683 60.879294 106.090871 60.386695 106.090871 59.873132 
C 106.090871 59.359568 105.88683 58.86697 105.523686 58.503825 
C 105.160542 58.140681 104.667943 57.93664 104.15438 57.93664 
C 103.640816 57.93664 103.148218 58.140681 102.785073 58.503825 
C 102.421929 58.86697 102.217888 59.359568 102.217888 59.873132 
C 102.217888 60.386695 102.421929 60.879294 102.785073 61.242438 
C 103.148218 61.605582 103.640816 61.809623 104.15438 61.809623 
z
" clip-path="url(#pdbe3fd16af)" style="fill: #2c6fb0; fill-opacity: 0.78"/>
    <path d="M 141.644654 61.925201 
C 142.158217 61.925201 142.650816 61.72116 143.01396 61.358016 
C 143.377104 60.994871 143.581145 60.502273 143.581145 59.988709 
C 143.581145 59.475146 143.377104 58.982547 143.01396 58.619403 
C 142.650816 58.256259 142.158217 58.052218 141.644654 58.052218 
C 141.13109 58.052218 140.638492 58.256259 140.275347 58.619403 
C 139.912203 58.982547 139.708162 59.475146 139.708162 59.988709 
C 139.708162 60.502273 139.912203 60.994871 140.275347 61.358016 
C 140.638492 61.72116 141.13109 61.925201 141.644654 61.925201 
z
" clip-path="url(#pdbe3fd16af)" style="fill: #2c6fb0; fill-opacity: 0.78"/>
    <path d="M 228.255326 62.055226 
C 228.76889 62.055226 229.261489 61.851185 229.624633 61.488041 
C 229.987777 61.124896 230.191818 60.632298 230.191818 60.118734 
C 230.191818 59.605171 229.987777 59.112572 229.624633 58.749428 
C 229.261489 58.386284 228.76889 58.182243 228.255326 58.182243 
C 227.741763 58.182243 227.249164 58.386284 226.88602 58.749428 
C 226.522876 59.112572 226.318835 59.605171 226.318835 60.118734 
C 226.318835 60.632298 226.522876 61.124896 226.88602 61.488041 
C 227.249164 61.851185 227.741763 62.055226 228.255326 62.055226 
z
" clip-path="url(#pdbe3fd16af)" style="fill: #2c6fb0; fill-opacity: 0.78"/>
    <path d="M 63.018248 101.438329 
C 63.531812 101.438329 64.02441 101.234288 64.387555 100.871144 
C 64.750699 100.507999 64.95474 100.015401 64.95474 99.501837 
C 64.95474 98.988274 64.750699 98.495675 64.387555 98.132531 
C 64.02441 97.769387 63.531812 97.565346 63.018248 97.565346 
C 62.504685 97.565346 62.012086 97.769387 61.648942 98.132531 
C 61.285797 98.495675 61.081756 98.988274 61.081756 99.501837 
C 61.081756 100.015401 61.285797 100.507999 61.648942 100.871144 
C 62.012086 101.234288 62.504685 101.438329 63.018248 101.438329 
z
" clip-path="url(#pdbe3fd16af)" style="fill: #2c6fb0; fill-opacity: 0.78"/>
    <path d="M 120.361374 99.935819 
C 120.874938 99.935819 121.367536 99.731778 121.73068 99.368633 
C 122.093825 99.005489 122.297866 98.512891 122.297866 97.999327 
C 122.297866 97.485763 122.093825 96.993165 121.73068 96.630021 
C 121.367536 96.266876 120.874938 96.062835 120.361374 96.062835 
C 119.84781 96.062835 119.355212 96.266876 118.992068 96.630021 
C 118.628923 96.993165 118.424882 97.485763 118.424882 97.999327 
C 118.424882 98.512891 118.628923 99.005489 118.992068 99.368633 
C 119.355212 99.731778 119.84781 99.935819 120.361374 99.935819 
z
" clip-path="url(#pdbe3fd16af)" style="fill: #2c6fb0; fill-opacity: 0.78"/>
    <path d="M 155.890623 102.305162 
C 156.404187 102.305162 156.896785 102.101121 157.259929 101.737976 
C 157.623074 101.374832 157.827115 100.882234 157.827115 100.36867 
C 157.827115 99.855106 157.623074 99.362508 157.259929 98.999364 
C 156.896785 98.636219 156.404187 98.432178 155.890623 98.432178 
C 155.377059 98.432178 154.884461 98.636219 154.521317 98.999364 
C 154.158172 99.362508 153.954131 99.855106 153.954131 100.36867 
C 153.954131 100.882234 154.158172 101.374832 154.521317 101.737976 
C 154.884461 102.101121 155.377059 102.305162 155.890623 102.305162 
z
" clip-path="url(#pdbe3fd16af)" style="fill: #2c6fb0; fill-opacity: 0.78"/>
    <path d="M 190.290008 99.863583 
C 190.803572 99.863583 191.29617 99.659542 191.659314 99.296397 
C 192.022459 98.933253 192.2265 98.440655 192.2265 97.927091 
C 192.2265 97.413527 192.022459 96.920929 191.659314 96.557785 
C 191.29617 96.19464 190.803572 95.990599 190.290008 95.990599 
C 189.776444 95.990599 189.283846 96.19464 188.920702 96.557785 
C 188.557557 96.920929 188.353516 97.413527 188.353516 97.927091 
C 188.353516 98.440655 188.557557 98.933253 188.920702 99.296397 
C 189.283846 99.659542 189.776444 99.863583 190.290008 99.863583 
z
" clip-path="url(#pdbe3fd16af)" style="fill: #2c6fb0; fill-opacity: 0.78"/>
    <path d="M 221.841623 101.01936 
C 222.355186 101.01936 222.847785 100.815319 223.210929 100.452174 
C 223.574074 100.08903 223.778115 99.596432 223.778115 99.082868 
C 223.778115 98.569304 223.574074 98.076706 223.210929 97.713562 
C 222.847785 97.350417 222.355186 97.146376 221.841623 97.146376 
C 221.328059 97.146376 220.835461 97.350417 220.472317 97.713562 
C 220.109172 98.076706 219.905131 98.569304 219.905131 99.082868 
C 219.905131 99.596432 220.109172 100.08903 220.472317 100.452174 
C 220.835461 100.815319 221.328059 101.01936 221.841623 101.01936 
z
" clip-path="url(#pdbe3fd16af)" style="fill: #2c6fb0; fill-opacity: 0.78"/>
    <path d="M 79.484387 71.200312 
C 79.997951 71.200312 80.490549 70.996271 80.853694 70.633127 
C 81.216838 70.269982 81.420879 69.777384 81.420879 69.26382 
C 81.420879 68.750257 81.216838 68.257658 80.853694 67.894514 
C 80.490549 67.53137 79.997951 67.327329 79.484387 67.327329 
C 78.970824 67.327329 78.478225 67.53137 78.115081 67.894514 
C 77.751936 68.257658 77.547895 68.750257 77.547895 69.26382 
C 77.547895 69.777384 77.751936 70.269982 78.115081 70.633127 
C 78.478225 70.996271 78.970824 71.200312 79.484387 71.200312 
z
" clip-path="url(#pdbe3fd16af)" style="fill: #2c6fb0; fill-opacity: 0.78"/>
    <path d="M 122.159817 71.518151 
C 122.673381 71.518151 123.165979 71.31411 123.529123 70.950965 
C 123.892268 70.587821 124.096309 70.095222 124.096309 69.581659 
C 124.096309 69.068095 123.892268 68.575497 123.529123 68.212352 
C 123.165979 67.849208 122.673381 67.645167 122.159817 67.645167 
C 121.646253 67.645167 121.153655 67.849208 120.790511 68.212352 
C 120.427366 68.575497 120.223325 69.068095 120.223325 69.581659 
C 120.223325 70.095222 120.427366 70.587821 120.790511 70.950965 
C 121.153655 71.31411 121.646253 71.518151 122.159817 71.518151 
z
" clip-path="url(#pdbe3fd16af)" style="fill: #2c6fb0; fill-opacity: 0.78"/>
    <path d="M 148.543516 71.532598 
C 149.057079 71.532598 149.549678 71.328557 149.912822 70.965413 
C 150.275966 70.602268 150.480007 70.10967 150.480007 69.596106 
C 150.480007 69.082543 150.275966 68.589944 149.912822 68.2268 
C 149.549678 67.863655 149.057079 67.659614 148.543516 67.659614 
C 148.029952 67.659614 147.537354 67.863655 147.174209 68.2268 
C 146.811065 68.589944 146.607024 69.082543 146.607024 69.596106 
C 146.607024 70.10967 146.811065 70.602268 147.174209 70.965413 
C 147.537354 71.328557 148.029952 71.532598 148.543516 71.532598 
z
" clip-path="url(#pdbe3fd16af)" style="fill: #2c6fb0; fill-opacity: 0.78"/>
    <path d="M 234.900166 71.503703 
C 235.413729 71.503703 235.906328 71.299662 236.269472 70.936518 
C 236.632616 70.573374 236.836657 70.080775 236.836657 69.567212 
C 236.836657 69.053648 236.632616 68.56105 236.269472 68.197905 
C 235.906328 67.834761 235.413729 67.63072 234.900166 67.63072 
C 234.386602 67.63072 233.894004 67.834761 233.530859 68.197905 
C 233.167715 68.56105 232.963674 69.053648 232.963674 69.567212 
C 232.963674 70.080775 233.167715 70.573374 233.530859 70.936518 
C 233.894004 71.299662 234.386602 71.503703 234.900166 71.503703 
z
" clip-path="url(#pdbe3fd16af)" style="fill: #2c6fb0; fill-opacity: 0.78"/>
    <path d="M 82.186875 133.9879 
C 82.700438 133.9879 83.193037 133.783859 83.556181 133.420715 
C 83.919325 133.05757 84.123366 132.564972 84.123366 132.051408 
C 84.123366 131.537845 83.919325 131.045246 83.556181 130.682102 
C 83.193037 130.318958 82.700438 130.114917 82.186875 130.114917 
C 81.673311 130.114917 81.180713 130.318958 80.817568 130.682102 
C 80.454424 131.045246 80.250383 131.537845 80.250383 132.051408 
C 80.250383 132.564972 80.454424 133.05757 80.817568 133.420715 
C 81.180713 133.783859 81.673311 133.9879 82.186875 133.9879 
z
" clip-path="url(#pdbe3fd16af)" style="fill: #2c6fb0; fill-opacity: 0.78"/>
    <path d="M 121.668935 133.149962 
C 122.182498 133.149962 122.675097 132.945921 123.038241 132.582776 
C 123.401385 132.219632 123.605426 131.727034 123.605426 131.21347 
C 123.605426 130.699906 123.401385 130.207308 123.038241 129.844164 
C 122.675097 129.481019 122.182498 129.276978 121.668935 129.276978 
C 121.155371 129.276978 120.662773 129.481019 120.299628 129.844164 
C 119.936484 130.207308 119.732443 130.699906 119.732443 131.21347 
C 119.732443 131.727034 119.936484 132.219632 120.299628 132.582776 
C 120.662773 132.945921 121.155371 133.149962 121.668935 133.149962 
z
" clip-path="url(#pdbe3fd16af)" style="fill: #2c6fb0; fill-opacity: 0.78"/>
    <path d="M 147.368025 132.947701 
C 147.881589 132.947701 148.374187 132.74366 148.737331 132.380515 
C 149.100476 132.017371 149.304517 131.524773 149.304517 131.011209 
C 149.304517 130.497645 149.100476 130.005047 148.737331 129.641903 
C 148.374187 129.278758 147.881589 129.074717 147.368025 129.074717 
C 146.854461 129.074717 146.361863 129.278758 145.998719 129.641903 
C 145.635574 130.005047 145.431533 130.497645 145.431533 131.011209 
C 145.431533 131.524773 145.635574 132.017371 145.998719 132.380515 
C 146.361863 132.74366 146.854461 132.947701 147.368025 132.947701 
z
" clip-path="url(#pdbe3fd16af)" style="fill: #2c6fb0; fill-opacity: 0.78"/>
    <path d="M 190.109647 133.135515 
C 190.62321 133.135515 191.115809 132.931474 191.478953 132.568329 
C 191.842097 132.205185 192.046138 131.712586 192.046138 131.199023 
C 192.046138 130.685459 191.842097 130.192861 191.478953 129.829716 
C 191.115809 129.466572 190.62321 129.262531 190.109647 129.262531 
C 189.596083 129.262531 189.103485 129.466572 188.74034 129.829716 
C 188.377196 130.192861 188.173155 130.685459 188.173155 131.199023 
C 188.173155 131.712586 188.377196 132.205185 188.74034 132.568329 
C 189.103485 132.931474 189.596083 133.135515 190.109647 133.135515 
z
" clip-path="url(#pdbe3fd16af)" style="fill: #2c6fb0; fill-opacity: 0.78"/>
    <path d="M 224.627584 133.121067 
C 225.141148 133.121067 225.633746 132.917026 225.996891 132.553882 
C 226.360035 132.190738 226.564076 131.698139 226.564076 131.184576 
C 226.564076 130.671012 226.360035 130.178414 225.996891 129.815269 
C 225.633746 129.452125 225.141148 129.248084 224.627584 129.248084 
C 224.114021 129.248084 223.621422 129.452125 223.258278 129.815269 
C 222.895134 130.178414 222.691093 130.671012 222.691093 131.184576 
C 222.691093 131.698139 222.895134 132.190738 223.258278 132.553882 
C 223.621422 132.917026 224.114021 133.121067 224.627584 133.121067 
z
" clip-path="url(#pdbe3fd16af)" style="fill: #2c6fb0; fill-opacity: 0.78"/>
    <path d="M 62.057791 54.586017 
C 62.571355 54.586017 63.063953 54.381976 63.427098 54.018832 
C 63.790242 53.655687 63.994283 53.163089 63.994283 52.649525 
C 63.994283 52.135962 63.790242 51.643363 63.427098 51.280219 
C 63.063953 50.917074 62.571355 50.713033 62.057791 50.713033 
C 61.544228 50.713033 61.051629 50.917074 60.688485 51.280219 
C 60.32534 51.643363 60.1213 52.135962 60.1213 52.649525 
C 60.1213 53.163089 60.32534 53.655687 60.688485 54.018832 
C 61.051629 54.381976 61.544228 54.586017 62.057791 54.586017 
z
" clip-path="url(#pdbe3fd16af)" style="fill: #2c6fb0; fill-opacity: 0.78"/>
    <path d="M 109.386504 54.961644 
C 109.900068 54.961644 110.392666 54.757603 110.755811 54.394459 
C 111.118955 54.031315 111.322996 53.538716 111.322996 53.025153 
C 111.322996 52.511589 111.118955 52.018991 110.755811 51.655846 
C 110.392666 51.292702 109.900068 51.088661 109.386504 51.088661 
C 108.872941 51.088661 108.380342 51.292702 108.017198 51.655846 
C 107.654054 52.018991 107.450013 52.511589 107.450013 53.025153 
C 107.450013 53.538716 107.654054 54.031315 108.017198 54.394459 
C 108.380342 54.757603 108.872941 54.961644 109.386504 54.961644 
z
" clip-path="url(#pdbe3fd16af)" style="fill: #2c6fb0; fill-opacity: 0.78"/>
    <path d="M 157.771171 69.957852 
C 158.284735 69.957852 158.777333 69.753811 159.140478 69.390666 
C 159.503622 69.027522 159.707663 68.534923 159.707663 68.02136 
C 159.707663 67.507796 159.503622 67.015198 159.140478 66.652053 
C 158.777333 66.288909 158.284735 66.084868 157.771171 66.084868 
C 157.257608 66.084868 156.765009 66.288909 156.401865 66.652053 
C 156.038721 67.015198 155.83468 67.507796 155.83468 68.02136 
C 155.83468 68.534923 156.038721 69.027522 156.401865 69.390666 
C 156.765009 69.753811 157.257608 69.957852 157.771171 69.957852 
z
" clip-path="url(#pdbe3fd16af)" style="fill: #2c6fb0; fill-opacity: 0.78"/>
    <path d="M 223.905426 55.135011 
C 224.418989 55.135011 224.911588 54.93097 225.274732 54.567826 
C 225.637876 54.204681 225.841917 53.712083 225.841917 53.198519 
C 225.841917 52.684956 225.637876 52.192357 225.274732 51.829213 
C 224.911588 51.466069 224.418989 51.262028 223.905426 51.262028 
C 223.391862 51.262028 222.899264 51.466069 222.536119 51.829213 
C 222.172975 52.192357 221.968934 52.684956 221.968934 53.198519 
C 221.968934 53.712083 222.172975 54.204681 222.536119 54.567826 
C 222.899264 54.93097 223.391862 55.135011 223.905426 55.135011 
z
" clip-path="url(#pdbe3fd16af)" style="fill: #2c6fb0; fill-opacity: 0.78"/>
    <path d="M 69.627683 106.191462 
C 70.141247 106.191462 70.633845 105.987421 70.996989 105.624277 
C 71.360134 105.261132 71.564175 104.768534 71.564175 104.25497 
C 71.564175 103.741407 71.360134 103.248808 70.996989 102.885664 
C 70.633845 102.52252 70.141247 102.318479 69.627683 102.318479 
C 69.114119 102.318479 68.621521 102.52252 68.258377 102.885664 
C 67.895232 103.248808 67.691191 103.741407 67.691191 104.25497 
C 67.691191 104.768534 67.895232 105.261132 68.258377 105.624277 
C 68.621521 105.987421 69.114119 106.191462 69.627683 106.191462 
z
" clip-path="url(#pdbe3fd16af)" style="fill: #2c6fb0; fill-opacity: 0.78"/>
    <path d="M 112.167491 106.393723 
C 112.681054 106.393723 113.173653 106.189682 113.536797 105.826538 
C 113.899941 105.463393 114.103982 104.970795 114.103982 104.457231 
C 114.103982 103.943668 113.899941 103.451069 113.536797 103.087925 
C 113.173653 102.724781 112.681054 102.52074 112.167491 102.52074 
C 111.653927 102.52074 111.161329 102.724781 110.798184 103.087925 
C 110.43504 103.451069 110.230999 103.943668 110.230999 104.457231 
C 110.230999 104.970795 110.43504 105.463393 110.798184 105.826538 
C 111.161329 106.189682 111.653927 106.393723 112.167491 106.393723 
z
" clip-path="url(#pdbe3fd16af)" style="fill: #2c6fb0; fill-opacity: 0.78"/>
    <path d="M 147.268203 107.405028 
C 147.781766 107.405028 148.274365 107.200987 148.637509 106.837843 
C 149.000653 106.474698 149.204694 105.9821 149.204694 105.468536 
C 149.204694 104.954973 149.000653 104.462374 148.637509 104.09923 
C 148.274365 103.736086 147.781766 103.532045 147.268203 103.532045 
C 146.754639 103.532045 146.26204 103.736086 145.898896 104.09923 
C 145.535752 104.462374 145.331711 104.954973 145.331711 105.468536 
C 145.331711 105.9821 145.535752 106.474698 145.898896 106.837843 
C 146.26204 107.200987 146.754639 107.405028 147.268203 107.405028 
z
" clip-path="url(#pdbe3fd16af)" style="fill: #2c6fb0; fill-opacity: 0.78"/>
    <path d="M 188.41169 106.278145 
C 188.925254 106.278145 189.417853 106.074104 189.780997 105.71096 
C 190.144141 105.347816 190.348182 104.855217 190.348182 104.341654 
C 190.348182 103.82809 190.144141 103.335492 189.780997 102.972347 
C 189.417853 102.609203 188.925254 102.405162 188.41169 102.405162 
C 187.898127 102.405162 187.405528 102.609203 187.042384 102.972347 
C 186.67924 103.335492 186.475199 103.82809 186.475199 104.341654 
C 186.475199 104.855217 186.67924 105.347816 187.042384 105.71096 
C 187.405528 106.074104 187.898127 106.278145 188.41169 106.278145 
z
" clip-path="url(#pdbe3fd16af)" style="fill: #2c6fb0; fill-opacity: 0.78"/>
    <path d="M 235.52075 107.18832 
C 236.034314 107.18832 236.526912 106.984279 236.890056 106.621134 
C 237.253201 106.25799 237.457242 105.765392 237.457242 105.251828 
C 237.457242 104.738264 237.253201 104.245666 236.890056 103.882522 
C 236.526912 103.519377 236.034314 103.315336 235.52075 103.315336 
C 235.007186 103.315336 234.514588 103.519377 234.151444 103.882522 
C 233.788299 104.245666 233.584258 104.738264 233.584258 105.251828 
C 233.584258 105.765392 233.788299 106.25799 234.151444 106.621134 
C 234.514588 106.984279 235.007186 107.18832 235.52075 107.18832 
z
" clip-path="url(#pdbe3fd16af)" style="fill: #2c6fb0; fill-opacity: 0.78"/>
    <path d="M 65.758776 83.061474 
C 66.27234 83.061474 66.764938 82.857433 67.128083 82.494289 
C 67.491227 82.131144 67.695268 81.638546 67.695268 81.124982 
C 67.695268 80.611419 67.491227 80.11882 67.128083 79.755676 
C 66.764938 79.392531 66.27234 79.18849 65.758776 79.18849 
C 65.245213 79.18849 64.752614 79.392531 64.38947 79.755676 
C 64.026326 80.11882 63.822285 80.611419 63.822285 81.124982 
C 63.822285 81.638546 64.026326 82.131144 64.38947 82.494289 
C 64.752614 82.857433 65.245213 83.061474 65.758776 83.061474 
z
" clip-path="url(#pdbe3fd16af)" style="fill: #2c6fb0; fill-opacity: 0.78"/>
    <path d="M 122.448837 83.942754 
C 122.9624 83.942754 123.454999 83.738713 123.818143 83.375569 
C 124.181287 83.012424 124.385328 82.519826 124.385328 82.006262 
C 124.385328 81.492699 124.181287 81.0001 123.818143 80.636956 
C 123.454999 80.273811 122.9624 80.06977 122.448837 80.06977 
C 121.935273 80.06977 121.442675 80.273811 121.07953 80.636956 
C 120.716386 81.0001 120.512345 81.492699 120.512345 82.006262 
C 120.512345 82.519826 120.716386 83.012424 121.07953 83.375569 
C 121.442675 83.738713 121.935273 83.942754 122.448837 83.942754 
z
" clip-path="url(#pdbe3fd16af)" style="fill: #2c6fb0; fill-opacity: 0.78"/>
    <path d="M 160.75869 83.624915 
C 161.272253 83.624915 161.764852 83.420874 162.127996 83.05773 
C 162.49114 82.694586 162.695181 82.201987 162.695181 81.688423 
C 162.695181 81.17486 162.49114 80.682261 162.127996 80.319117 
C 161.764852 79.955973 161.272253 79.751932 160.75869 79.751932 
C 160.245126 79.751932 159.752528 79.955973 159.389383 80.319117 
C 159.026239 80.682261 158.822198 81.17486 158.822198 81.688423 
C 158.822198 82.201987 159.026239 82.694586 159.389383 83.05773 
C 159.752528 83.420874 160.245126 83.624915 160.75869 83.624915 
z
" clip-path="url(#pdbe3fd16af)" style="fill: #2c6fb0; fill-opacity: 0.78"/>
    <path d="M 227.212585 83.986095 
C 227.726148 83.986095 228.218747 83.782055 228.581891 83.41891 
C 228.945035 83.055766 229.149076 82.563167 229.149076 82.049604 
C 229.149076 81.53604 228.945035 81.043442 228.581891 80.680297 
C 228.218747 80.317153 227.726148 80.113112 227.212585 80.113112 
C 226.699021 80.113112 226.206423 80.317153 225.843278 80.680297 
C 225.480134 81.043442 225.276093 81.53604 225.276093 82.049604 
C 225.276093 82.563167 225.480134 83.055766 225.843278 83.41891 
C 226.206423 83.782055 226.699021 83.986095 227.212585 83.986095 
z
" clip-path="url(#pdbe3fd16af)" style="fill: #2c6fb0; fill-opacity: 0.78"/>
    <path d="M 73.59877 77.311483 
C 74.112334 77.311483 74.604933 77.107442 74.968077 76.744298 
C 75.331221 76.381153 75.535262 75.888555 75.535262 75.374991 
C 75.535262 74.861428 75.331221 74.368829 74.968077 74.005685 
C 74.604933 73.642541 74.112334 73.4385 73.59877 73.4385 
C 73.085207 73.4385 72.592608 73.642541 72.229464 74.005685 
C 71.86632 74.368829 71.662279 74.861428 71.662279 75.374991 
C 71.662279 75.888555 71.86632 76.381153 72.229464 76.744298 
C 72.592608 77.107442 73.085207 77.311483 73.59877 77.311483 
z
" clip-path="url(#pdbe3fd16af)" style="fill: #2c6fb0; fill-opacity: 0.78"/>
    <path d="M 117.001615 76.386861 
C 117.515179 76.386861 118.007777 76.18282 118.370922 75.819676 
C 118.734066 75.456532 118.938107 74.963933 118.938107 74.45037 
C 118.938107 73.936806 118.734066 73.444208 118.370922 73.081063 
C 118.007777 72.717919 117.515179 72.513878 117.001615 72.513878 
C 116.488052 72.513878 115.995453 72.717919 115.632309 73.081063 
C 115.269165 73.444208 115.065124 73.936806 115.065124 74.45037 
C 115.065124 74.963933 115.269165 75.456532 115.632309 75.819676 
C 115.995453 76.18282 116.488052 76.386861 117.001615 76.386861 
z
" clip-path="url(#pdbe3fd16af)" style="fill: #2c6fb0; fill-opacity: 0.78"/>
    <path d="M 157.448592 77.470402 
C 157.962155 77.470402 158.454754 77.266361 158.817898 76.903217 
C 159.181042 76.540073 159.385083 76.047474 159.385083 75.533911 
C 159.385083 75.020347 159.181042 74.527749 158.817898 74.164604 
C 158.454754 73.80146 157.962155 73.597419 157.448592 73.597419 
C 156.935028 73.597419 156.44243 73.80146 156.079285 74.164604 
C 155.716141 74.527749 155.5121 75.020347 155.5121 75.533911 
C 155.5121 76.047474 155.716141 76.540073 156.079285 76.903217 
C 156.44243 77.266361 156.935028 77.470402 157.448592 77.470402 
z
" clip-path="url(#pdbe3fd16af)" style="fill: #2c6fb0; fill-opacity: 0.78"/>
    <path d="M 184.081486 76.44465 
C 184.59505 76.44465 185.087648 76.240609 185.450793 75.877465 
C 185.813937 75.514321 186.017978 75.021722 186.017978 74.508159 
C 186.017978 73.994595 185.813937 73.501996 185.450793 73.138852 
C 185.087648 72.775708 184.59505 72.571667 184.081486 72.571667 
C 183.567923 72.571667 183.075324 72.775708 182.71218 73.138852 
C 182.349036 73.501996 182.144995 73.994595 182.144995 74.508159 
C 182.144995 75.021722 182.349036 75.514321 182.71218 75.877465 
C 183.075324 76.240609 183.567923 76.44465 184.081486 76.44465 
z
" clip-path="url(#pdbe3fd16af)" style="fill: #2c6fb0; fill-opacity: 0.78"/>
    <path d="M 238.864142 76.487992 
C 239.377706 76.487992 239.870304 76.283951 240.233449 75.920807 
C 240.596593 75.557662 240.800634 75.065064 240.800634 74.5515 
C 240.800634 74.037937 240.596593 73.545338 240.233449 73.182194 
C 239.870304 72.81905 239.377706 72.615009 238.864142 72.615009 
C 238.350579 72.615009 237.85798 72.81905 237.494836 73.182194 
C 237.131692 73.545338 236.927651 74.037937 236.927651 74.5515 
C 236.927651 75.065064 237.131692 75.557662 237.494836 75.920807 
C 237.85798 76.283951 238.350579 76.487992 238.864142 76.487992 
z
" clip-path="url(#pdbe3fd16af)" style="fill: #2c6fb0; fill-opacity: 0.78"/>
    <path d="M 82.760985 54.759383 
C 83.274549 54.759383 83.767147 54.555342 84.130292 54.192198 
C 84.493436 53.829054 84.697477 53.336455 84.697477 52.822892 
C 84.697477 52.309328 84.493436 51.81673 84.130292 51.453585 
C 83.767147 51.090441 83.274549 50.8864 82.760985 50.8864 
C 82.247422 50.8864 81.754823 51.090441 81.391679 51.453585 
C 81.028535 51.81673 80.824494 52.309328 80.824494 52.822892 
C 80.824494 53.336455 81.028535 53.829054 81.391679 54.192198 
C 81.754823 54.555342 82.247422 54.759383 82.760985 54.759383 
z
" clip-path="url(#pdbe3fd16af)" style="fill: #2c6fb0; fill-opacity: 0.78"/>
    <path d="M 114.4211 55.467297 
C 114.934663 55.467297 115.427262 55.263256 115.790406 54.900112 
C 116.15355 54.536967 116.357591 54.044369 116.357591 53.530805 
C 116.357591 53.017242 116.15355 52.524643 115.790406 52.161499 
C 115.427262 51.798354 114.934663 51.594313 114.4211 51.594313 
C 113.907536 51.594313 113.414938 51.798354 113.051793 52.161499 
C 112.688649 52.524643 112.484608 53.017242 112.484608 53.530805 
C 112.484608 54.044369 112.688649 54.536967 113.051793 54.900112 
C 113.414938 55.263256 113.907536 55.467297 114.4211 55.467297 
z
" clip-path="url(#pdbe3fd16af)" style="fill: #2c6fb0; fill-opacity: 0.78"/>
    <path d="M 161.650812 54.542675 
C 162.164375 54.542675 162.656974 54.338634 163.020118 53.97549 
C 163.383263 53.612346 163.587304 53.119747 163.587304 52.606183 
C 163.587304 52.09262 163.383263 51.600021 163.020118 51.236877 
C 162.656974 50.873733 162.164375 50.669692 161.650812 50.669692 
C 161.137248 50.669692 160.64465 50.873733 160.281505 51.236877 
C 159.918361 51.600021 159.71432 52.09262 159.71432 52.606183 
C 159.71432 53.119747 159.918361 53.612346 160.281505 53.97549 
C 160.64465 54.338634 161.137248 54.542675 161.650812 54.542675 
z
" clip-path="url(#pdbe3fd16af)" style="fill: #2c6fb0; fill-opacity: 0.78"/>
    <path d="M 244.753635 55.568427 
C 245.267199 55.568427 245.759798 55.364386 246.122942 55.001242 
C 246.486086 54.638098 246.690127 54.145499 246.690127 53.631936 
C 246.690127 53.118372 246.486086 52.625774 246.122942 52.262629 
C 245.759798 51.899485 245.267199 51.695444 244.753635 51.695444 
C 244.240072 51.695444 243.747473 51.899485 243.384329 52.262629 
C 243.021185 52.625774 242.817144 53.118372 242.817144 53.631936 
C 242.817144 54.145499 243.021185 54.638098 243.384329 55.001242 
C 243.747473 55.364386 244.240072 55.568427 244.753635 55.568427 
z
" clip-path="url(#pdbe3fd16af)" style="fill: #2c6fb0; fill-opacity: 0.78"/>
    <path d="M 70.741389 171.52176 
C 71.254952 171.52176 71.747551 171.317719 72.110695 170.954574 
C 72.473839 170.59143 72.67788 170.098832 72.67788 169.585268 
C 72.67788 169.071704 72.473839 168.579106 72.110695 168.215962 
C 71.747551 167.852817 71.254952 167.648776 70.741389 167.648776 
C 70.227825 167.648776 69.735227 167.852817 69.372082 168.215962 
C 69.008938 168.579106 68.804897 169.071704 68.804897 169.585268 
C 68.804897 170.098832 69.008938 170.59143 69.372082 170.954574 
C 69.735227 171.317719 70.227825 171.52176 70.741389 171.52176 
z
" clip-path="url(#pdbe3fd16af)" style="fill: #2c6fb0; fill-opacity: 0.78"/>
    <path d="M 119.502495 172.359698 
C 120.016059 172.359698 120.508657 172.155657 120.871801 171.792513 
C 121.234946 171.429369 121.438987 170.93677 121.438987 170.423206 
C 121.438987 169.909643 121.234946 169.417044 120.871801 169.0539 
C 120.508657 168.690756 120.016059 168.486715 119.502495 168.486715 
C 118.988931 168.486715 118.496333 168.690756 118.133189 169.0539 
C 117.770044 169.417044 117.566003 169.909643 117.566003 170.423206 
C 117.566003 170.93677 117.770044 171.429369 118.133189 171.792513 
C 118.496333 172.155657 118.988931 172.359698 119.502495 172.359698 
z
" clip-path="url(#pdbe3fd16af)" style="fill: #2c6fb0; fill-opacity: 0.78"/>
    <path d="M 159.434866 171.78181 
C 159.94843 171.78181 160.441028 171.577769 160.804173 171.214624 
C 161.167317 170.85148 161.371358 170.358882 161.371358 169.845318 
C 161.371358 169.331754 161.167317 168.839156 160.804173 168.476012 
C 160.441028 168.112867 159.94843 167.908826 159.434866 167.908826 
C 158.921303 167.908826 158.428704 168.112867 158.06556 168.476012 
C 157.702416 168.839156 157.498375 169.331754 157.498375 169.845318 
C 157.498375 170.358882 157.702416 170.85148 158.06556 171.214624 
C 158.428704 171.577769 158.921303 171.78181 159.434866 171.78181 
z
" clip-path="url(#pdbe3fd16af)" style="fill: #2c6fb0; fill-opacity: 0.78"/>
    <path d="M 199.005296 172.027412 
C 199.518859 172.027412 200.011458 171.823371 200.374602 171.460227 
C 200.737747 171.097083 200.941788 170.604484 200.941788 170.090921 
C 200.941788 169.577357 200.737747 169.084758 200.374602 168.721614 
C 200.011458 168.35847 199.518859 168.154429 199.005296 168.154429 
C 198.491732 168.154429 197.999134 168.35847 197.635989 168.721614 
C 197.272845 169.084758 197.068804 169.577357 197.068804 170.090921 
C 197.068804 170.604484 197.272845 171.097083 197.635989 171.460227 
C 197.999134 171.823371 198.491732 172.027412 199.005296 172.027412 
z
" clip-path="url(#pdbe3fd16af)" style="fill: #2c6fb0; fill-opacity: 0.78"/>
    <path d="M 222.628004 171.940729 
C 223.141568 171.940729 223.634167 171.736688 223.997311 171.373544 
C 224.360455 171.010399 224.564496 170.517801 224.564496 170.004237 
C 224.564496 169.490674 224.360455 168.998075 223.997311 168.634931 
C 223.634167 168.271787 223.141568 168.067746 222.628004 168.067746 
C 222.114441 168.067746 221.621842 168.271787 221.258698 168.634931 
C 220.895554 168.998075 220.691513 169.490674 220.691513 170.004237 
C 220.691513 170.517801 220.895554 171.010399 221.258698 171.373544 
C 221.621842 171.736688 222.114441 171.940729 222.628004 171.940729 
z
" clip-path="url(#pdbe3fd16af)" style="fill: #2c6fb0; fill-opacity: 0.78"/>
    <path d="M 82.661688 61.939648 
C 83.175251 61.939648 83.66785 61.735607 84.030994 61.372463 
C 84.394138 61.009319 84.598179 60.51672 84.598179 60.003157 
C 84.598179 59.489593 84.394138 58.996995 84.030994 58.63385 
C 83.66785 58.270706 83.175251 58.066665 82.661688 58.066665 
C 82.148124 58.066665 81.655526 58.270706 81.292381 58.63385 
C 80.929237 58.996995 80.725196 59.489593 80.725196 60.003157 
C 80.725196 60.51672 80.929237 61.009319 81.292381 61.372463 
C 81.655526 61.735607 82.148124 61.939648 82.661688 61.939648 
z
" clip-path="url(#pdbe3fd16af)" style="fill: #2c6fb0; fill-opacity: 0.78"/>
    <path d="M 114.800218 62.86427 
C 115.313782 62.86427 115.80638 62.660229 116.169525 62.297085 
C 116.532669 61.93394 116.73671 61.441342 116.73671 60.927778 
C 116.73671 60.414215 116.532669 59.921616 116.169525 59.558472 
C 115.80638 59.195328 115.313782 58.991287 114.800218 58.991287 
C 114.286655 58.991287 113.794056 59.195328 113.430912 59.558472 
C 113.067768 59.921616 112.863727 60.414215 112.863727 60.927778 
C 112.863727 61.441342 113.067768 61.93394 113.430912 62.297085 
C 113.794056 62.660229 114.286655 62.86427 114.800218 62.86427 
z
" clip-path="url(#pdbe3fd16af)" style="fill: #2c6fb0; fill-opacity: 0.78"/>
    <path d="M 146.702846 61.939648 
C 147.21641 61.939648 147.709009 61.735607 148.072153 61.372463 
C 148.435297 61.009319 148.639338 60.51672 148.639338 60.003157 
C 148.639338 59.489593 148.435297 58.996995 148.072153 58.63385 
C 147.709009 58.270706 147.21641 58.066665 146.702846 58.066665 
C 146.189283 58.066665 145.696684 58.270706 145.33354 58.63385 
C 144.970396 58.996995 144.766355 59.489593 144.766355 60.003157 
C 144.766355 60.51672 144.970396 61.009319 145.33354 61.372463 
C 145.696684 61.735607 146.189283 61.939648 146.702846 61.939648 
z
" clip-path="url(#pdbe3fd16af)" style="fill: #2c6fb0; fill-opacity: 0.78"/>
    <path d="M 244.212109 62.633115 
C 244.725672 62.633115 245.218271 62.429074 245.581415 62.065929 
C 245.944559 61.702785 246.1486 61.210186 246.1486 60.696623 
C 246.1486 60.183059 245.944559 59.690461 245.581415 59.327316 
C 245.218271 58.964172 244.725672 58.760131 244.212109 58.760131 
C 243.698545 58.760131 243.205947 58.964172 242.842802 59.327316 
C 242.479658 59.690461 242.275617 60.183059 242.275617 60.696623 
C 242.275617 61.210186 242.479658 61.702785 242.842802 62.065929 
C 243.205947 62.429074 243.698545 62.633115 244.212109 62.633115 
z
" clip-path="url(#pdbe3fd16af)" style="fill: #2c6fb0; fill-opacity: 0.78"/>
    <path d="M 61.839764 74.826562 
C 62.353328 74.826562 62.845926 74.622521 63.209071 74.259377 
C 63.572215 73.896233 63.776256 73.403634 63.776256 72.890071 
C 63.776256 72.376507 63.572215 71.883909 63.209071 71.520764 
C 62.845926 71.15762 62.353328 70.953579 61.839764 70.953579 
C 61.326201 70.953579 60.833602 71.15762 60.470458 71.520764 
C 60.107314 71.883909 59.903273 72.376507 59.903273 72.890071 
C 59.903273 73.403634 60.107314 73.896233 60.470458 74.259377 
C 60.833602 74.622521 61.326201 74.826562 61.839764 74.826562 
z
" clip-path="url(#pdbe3fd16af)" style="fill: #2c6fb0; fill-opacity: 0.78"/>
    <path d="M 110.644816 75.390004 
C 111.158379 75.390004 111.650978 75.185963 112.014122 74.822818 
C 112.377266 74.459674 112.581307 73.967076 112.581307 73.453512 
C 112.581307 72.939948 112.377266 72.44735 112.014122 72.084206 
C 111.650978 71.721061 111.158379 71.51702 110.644816 71.51702 
C 110.131252 71.51702 109.638654 71.721061 109.275509 72.084206 
C 108.912365 72.44735 108.708324 72.939948 108.708324 73.453512 
C 108.708324 73.967076 108.912365 74.459674 109.275509 74.822818 
C 109.638654 75.185963 110.131252 75.390004 110.644816 75.390004 
z
" clip-path="url(#pdbe3fd16af)" style="fill: #2c6fb0; fill-opacity: 0.78"/>
    <path d="M 149.712861 75.288873 
C 150.226424 75.288873 150.719023 75.084832 151.082167 74.721688 
C 151.445311 74.358544 151.649352 73.865945 151.649352 73.352382 
C 151.649352 72.838818 151.445311 72.346219 151.082167 71.983075 
C 150.719023 71.619931 150.226424 71.41589 149.712861 71.41589 
C 149.199297 71.41589 148.706698 71.619931 148.343554 71.983075 
C 147.98041 72.346219 147.776369 72.838818 147.776369 73.352382 
C 147.776369 73.865945 147.98041 74.358544 148.343554 74.721688 
C 148.706698 75.084832 149.199297 75.288873 149.712861 75.288873 
z
" clip-path="url(#pdbe3fd16af)" style="fill: #2c6fb0; fill-opacity: 0.78"/>
    <path d="M 189.593916 75.086612 
C 190.10748 75.086612 190.600078 74.882571 190.963223 74.519427 
C 191.326367 74.156283 191.530408 73.663684 191.530408 73.150121 
C 191.530408 72.636557 191.326367 72.143958 190.963223 71.780814 
C 190.600078 71.41767 190.10748 71.213629 189.593916 71.213629 
C 189.080353 71.213629 188.587754 71.41767 188.22461 71.780814 
C 187.861466 72.143958 187.657425 72.636557 187.657425 73.150121 
C 187.657425 73.663684 187.861466 74.156283 188.22461 74.519427 
C 188.587754 74.882571 189.080353 75.086612 189.593916 75.086612 
z
" clip-path="url(#pdbe3fd16af)" style="fill: #2c6fb0; fill-opacity: 0.78"/>
    <path d="M 225.941236 75.028823 
C 226.4548 75.028823 226.947398 74.824782 227.310543 74.461638 
C 227.673687 74.098494 227.877728 73.605895 227.877728 73.092332 
C 227.877728 72.578768 227.673687 72.08617 227.310543 71.723025 
C 226.947398 71.359881 226.4548 71.15584 225.941236 71.15584 
C 225.427673 71.15584 224.935074 71.359881 224.57193 71.723025 
C 224.208786 72.08617 224.004745 72.578768 224.004745 73.092332 
C 224.004745 73.605895 224.208786 74.098494 224.57193 74.461638 
C 224.935074 74.824782 225.427673 75.028823 225.941236 75.028823 
z
" clip-path="url(#pdbe3fd16af)" style="fill: #2c6fb0; fill-opacity: 0.78"/>
    <path d="M 64.376879 60.610505 
C 64.890443 60.610505 65.383041 60.406464 65.746186 60.043319 
C 66.10933 59.680175 66.313371 59.187577 66.313371 58.674013 
C 66.313371 58.160449 66.10933 57.667851 65.746186 57.304707 
C 65.383041 56.941562 64.890443 56.737521 64.376879 56.737521 
C 63.863316 56.737521 63.370717 56.941562 63.007573 57.304707 
C 62.644429 57.667851 62.440388 58.160449 62.440388 58.674013 
C 62.440388 59.187577 62.644429 59.680175 63.007573 60.043319 
C 63.370717 60.406464 63.863316 60.610505 64.376879 60.610505 
z
" clip-path="url(#pdbe3fd16af)" style="fill: #2c6fb0; fill-opacity: 0.78"/>
    <path d="M 124.110189 61.433996 
C 124.623753 61.433996 125.116351 61.229955 125.479496 60.866811 
C 125.84264 60.503666 126.046681 60.011068 126.046681 59.497504 
C 126.046681 58.983941 125.84264 58.491342 125.479496 58.128198 
C 125.116351 57.765053 124.623753 57.561012 124.110189 57.561012 
C 123.596626 57.561012 123.104027 57.765053 122.740883 58.128198 
C 122.377739 58.491342 122.173698 58.983941 122.173698 59.497504 
C 122.173698 60.011068 122.377739 60.503666 122.740883 60.866811 
C 123.104027 61.229955 123.596626 61.433996 124.110189 61.433996 
z
" clip-path="url(#pdbe3fd16af)" style="fill: #2c6fb0; fill-opacity: 0.78"/>
    <path d="M 152.268413 60.971685 
C 152.781977 60.971685 153.274576 60.767644 153.63772 60.4045 
C 154.000864 60.041355 154.204905 59.548757 154.204905 59.035193 
C 154.204905 58.52163 154.000864 58.029031 153.63772 57.665887 
C 153.274576 57.302743 152.781977 57.098702 152.268413 57.098702 
C 151.75485 57.098702 151.262251 57.302743 150.899107 57.665887 
C 150.535963 58.029031 150.331922 58.52163 150.331922 59.035193 
C 150.331922 59.548757 150.535963 60.041355 150.899107 60.4045 
C 151.262251 60.767644 151.75485 60.971685 152.268413 60.971685 
z
" clip-path="url(#pdbe3fd16af)" style="fill: #2c6fb0; fill-opacity: 0.78"/>
    <path d="M 222.259468 61.36176 
C 222.773031 61.36176 223.26563 61.157719 223.628774 60.794574 
C 223.991918 60.43143 224.195959 59.938832 224.195959 59.425268 
C 224.195959 58.911704 223.991918 58.419106 223.628774 58.055962 
C 223.26563 57.692817 222.773031 57.488776 222.259468 57.488776 
C 221.745904 57.488776 221.253306 57.692817 220.890161 58.055962 
C 220.527017 58.419106 220.322976 58.911704 220.322976 59.425268 
C 220.322976 59.938832 220.527017 60.43143 220.890161 60.794574 
C 221.253306 61.157719 221.745904 61.36176 222.259468 61.36176 
z
" clip-path="url(#pdbe3fd16af)" style="fill: #2c6fb0; fill-opacity: 0.78"/>
   </g>
   <g id="text_13">
    <g id="patch_7">
     <path d="M 87.818242 42.993688 
L 219.127773 42.993688 
Q 221.347773 42.993688 221.347773 40.773688 
L 221.347773 25.084243 
Q 221.347773 22.864243 219.127773 22.864243 
L 87.818242 22.864243 
Q 85.598242 22.864243 85.598242 25.084243 
L 85.598242 40.773688 
Q 85.598242 42.993688 87.818242 42.993688 
z
" style="fill: #ecf0f1; stroke: #95a5a6; stroke-width: 0.6; stroke-linejoin: miter"/>
    </g>
    <text style="font-size: 7.4px; font-family: 'Times New Roman', 'DejaVu Serif', serif" transform="translate(87.818242 30.777256)">4 / 90 configurations beat the linear baseline</text>
    <text style="font-size: 7.4px; font-family: 'Times New Roman', 'DejaVu Serif', serif" transform="translate(106.304945 38.621979)">86 / 90 not significant · 0 worse</text>
   </g>
   <g id="patch_8">
    <path d="M 116.146483 27.776313 
Q 123.989365 32.648384 131.167454 37.10748 
" style="fill: none; stroke: #27ae60; stroke-width: 0.7; stroke-linecap: round"/>
    <path d="M 129.52777 34.440753 
L 131.167454 37.10748 
L 128.050262 36.819191 
" style="fill: none; stroke: #27ae60; stroke-width: 0.7; stroke-linecap: round"/>
   </g>
   <g id="text_14">
    <text style="font-size: 7px; font-family: 'Times New Roman', 'DejaVu Serif', serif; fill: #27ae60" transform="translate(77.706854 15.265322)">4 above 0</text>
    <text style="font-size: 7px; font-family: 'Times New Roman', 'DejaVu Serif', serif; fill: #27ae60" transform="translate(77.706854 22.686005)">(CI excludes 0)</text>
   </g>
   <g id="text_15">
    <text style="font-size: 9.5px; font-family: 'Times New Roman', 'DejaVu Serif', serif; text-anchor: start" x="49.793008" y="13.796563" transform="rotate(-0 49.793008 13.796563)">A.  Graph vs linear, 90 configurations</text>
   </g>
   <g id="LineCollection_1">
    <path d="M 74.572709 53.718619 
L 74.572709 23.263894 
" clip-path="url(#pdbe3fd16af)" style="fill: none; stroke: #27ae60; stroke-width: 1.1"/>
   </g>
   <g id="line2d_13">
    <defs>
     <path id="mf8311fad42" d="M 2.5 0 
L -2.5 -0 
" style="stroke: #27ae60"/>
    </defs>
    <g clip-path="url(#pdbe3fd16af)">
     <use xlink:href="#mf8311fad42" x="74.572709" y="53.718619" style="fill: #1f77b4; stroke: #27ae60"/>
    </g>
   </g>
   <g id="line2d_14">
    <g clip-path="url(#pdbe3fd16af)">
     <use xlink:href="#mf8311fad42" x="74.572709" y="23.263894" style="fill: #1f77b4; stroke: #27ae60"/>
    </g>
   </g>
   <g id="LineCollection_2">
    <path d="M 123.539688 54.80216 
L 123.539688 24.05849 
" clip-path="url(#pdbe3fd16af)" style="fill: none; stroke: #27ae60; stroke-width: 1.1"/>
   </g>
   <g id="line2d_15">
    <g clip-path="url(#pdbe3fd16af)">
     <use xlink:href="#mf8311fad42" x="123.539688" y="54.80216" style="fill: #1f77b4; stroke: #27ae60"/>
    </g>
   </g>
   <g id="line2d_16">
    <g clip-path="url(#pdbe3fd16af)">
     <use xlink:href="#mf8311fad42" x="123.539688" y="24.05849" style="fill: #1f77b4; stroke: #27ae60"/>
    </g>
   </g>
   <g id="LineCollection_3">
    <path d="M 146.811687 53.906433 
L 146.811687 23.552838 
" clip-path="url(#pdbe3fd16af)" style="fill: none; stroke: #27ae60; stroke-width: 1.1"/>
   </g>
   <g id="line2d_17">
    <g clip-path="url(#pdbe3fd16af)">
     <use xlink:href="#mf8311fad42" x="146.811687" y="53.906433" style="fill: #1f77b4; stroke: #27ae60"/>
    </g>
   </g>
   <g id="line2d_18">
    <g clip-path="url(#pdbe3fd16af)">
     <use xlink:href="#mf8311fad42" x="146.811687" y="23.552838" style="fill: #1f77b4; stroke: #27ae60"/>
    </g>
   </g>
   <g id="LineCollection_4">
    <path d="M 244.699735 54.80216 
L 244.699735 24.087385 
" clip-path="url(#pdbe3fd16af)" style="fill: none; stroke: #27ae60; stroke-width: 1.1"/>
   </g>
   <g id="line2d_19">
    <g clip-path="url(#pdbe3fd16af)">
     <use xlink:href="#mf8311fad42" x="244.699735" y="54.80216" style="fill: #1f77b4; stroke: #27ae60"/>
    </g>
   </g>
   <g id="line2d_20">
    <g clip-path="url(#pdbe3fd16af)">
     <use xlink:href="#mf8311fad42" x="244.699735" y="24.087385" style="fill: #1f77b4; stroke: #27ae60"/>
    </g>
   </g>
  </g>
  <g id="axes_2">
   <g id="patch_9">
    <path d="M 314.177008 196.052562 
L 500.801008 196.052562 
L 500.801008 19.796563 
L 314.177008 19.796563 
z
" style="fill: #ffffff"/>
   </g>
   <g id="matplotlib.axis_3">
    <g id="text_16">
     <text style="font-size: 9px; font-family: 'Times New Roman', 'DejaVu Serif', serif; text-anchor: middle" x="407.489008" y="206.301938" transform="rotate(-0 407.489008 206.301938)">Prediction accuracy →</text>
    </g>
   </g>
   <g id="matplotlib.axis_4">
    <g id="text_17">
     <text style="font-size: 9px; font-family: 'Times New Roman', 'DejaVu Serif', serif; text-anchor: middle" x="308.234625" y="107.924563" transform="rotate(-90 308.234625 107.924563)">Interpretability →</text>
    </g>
   </g>
   <g id="line2d_21">
    <path d="M 314.177008 196.052562 
L 500.801008 19.796563 
" clip-path="url(#p290532a939)" style="fill: none; stroke-dasharray: 2.96,1.28; stroke-dashoffset: 0; stroke: #95a5a6; stroke-width: 0.8"/>
   </g>
   <g id="patch_10">
    <path d="M 314.177008 196.052562 
L 314.177008 19.796563 
" style="fill: none; stroke: #000000; stroke-width: 0.8; stroke-linejoin: miter; stroke-linecap: square"/>
   </g>
   <g id="patch_11">
    <path d="M 314.177008 196.052562 
L 500.801008 196.052562 
" style="fill: none; stroke: #000000; stroke-width: 0.8; stroke-linejoin: miter; stroke-linecap: square"/>
   </g>
   <g id="patch_12">
    <path d="M 369.475877 155.398631 
Q 350.202132 101.693819 379.645817 54.260894 
" style="fill: none; stroke: #1a1a1a; stroke-width: 1.1; stroke-linecap: round"/>
    <path d="M 376.217877 56.370212 
L 379.645817 54.260894 
L 379.276507 58.268837 
z
" style="fill: #1a1a1a; stroke: #1a1a1a; stroke-width: 1.1; stroke-linecap: round"/>
   </g>
   <g id="text_18">
    <text style="font-style: italic; font-size: 7.6px; font-family: 'Times New Roman', 'DejaVu Serif', serif; text-anchor: middle; fill: #1a1a1a" x="407.489008" y="224.253523" transform="rotate(-0 407.489008 224.253523)">Contribution = interpretability, not accuracy</text>
   </g>
   <g id="text_19">
    <text style="font-size: 9.5px; font-family: 'Times New Roman', 'DejaVu Serif', serif; text-anchor: start" x="314.177008" y="13.796563" transform="rotate(-0 314.177008 13.796563)">B.  Contribution reframed</text>
   </g>
   <g id="PathCollection_2">
    <defs>
     <path id="m4aa44ad636" d="M 0 4.743416 
C 1.257969 4.743416 2.464584 4.24362 3.354102 3.354102 
C 4.24362 2.464584 4.743416 1.257969 4.743416 0 
C 4.743416 -1.257969 4.24362 -2.464584 3.354102 -3.354102 
C 2.464584 -4.24362 1.257969 -4.743416 0 -4.743416 
C -1.257969 -4.743416 -2.464584 -4.24362 -3.354102 -3.354102 
C -4.24362 -2.464584 -4.743416 -1.257969 -4.743416 0 
C -4.743416 1.257969 -4.24362 2.464584 -3.354102 3.354102 
C -2.464584 4.24362 -1.257969 4.743416 0 4.743416 
z
" style="stroke: #ffffff; stroke-width: 1.2"/>
    </defs>
    <g clip-path="url(#p290532a939)">
     <use xlink:href="#m4aa44ad636" x="370.164208" y="157.276242" style="fill: #95a5a6; stroke: #ffffff; stroke-width: 1.2"/>
    </g>
   </g>
   <g id="PathCollection_3">
    <defs>
     <path id="m48c5779cff" d="M 0 4.743416 
C 1.257969 4.743416 2.464584 4.24362 3.354102 3.354102 
C 4.24362 2.464584 4.743416 1.257969 4.743416 0 
C 4.743416 -1.257969 4.24362 -2.464584 3.354102 -3.354102 
C 2.464584 -4.24362 1.257969 -4.743416 0 -4.743416 
C -1.257969 -4.743416 -2.464584 -4.24362 -3.354102 -3.354102 
C -4.24362 -2.464584 -4.743416 -1.257969 -4.743416 0 
C -4.743416 1.257969 -4.24362 2.464584 -3.354102 3.354102 
C -2.464584 4.24362 -1.257969 4.743416 0 4.743416 
z
" style="stroke: #ffffff; stroke-width: 1.2"/>
    </defs>
    <g clip-path="url(#p290532a939)">
     <use xlink:href="#m48c5779cff" x="448.546288" y="143.175762" style="fill: #2c6fb0; stroke: #ffffff; stroke-width: 1.2"/>
    </g>
   </g>
   <g id="PathCollection_4">
    <defs>
     <path id="mdaf38d986e" d="M 0 4.743416 
C 1.257969 4.743416 2.464584 4.24362 3.354102 3.354102 
C 4.24362 2.464584 4.743416 1.257969 4.743416 0 
C 4.743416 -1.257969 4.24362 -2.464584 3.354102 -3.354102 
C 2.464584 -4.24362 1.257969 -4.743416 0 -4.743416 
C -1.257969 -4.743416 -2.464584 -4.24362 -3.354102 -3.354102 
C -4.24362 -2.464584 -4.743416 -1.257969 -4.743416 0 
C -4.743416 1.257969 -4.24362 2.464584 -3.354102 3.354102 
C -2.464584 4.24362 -1.257969 4.743416 0 4.743416 
z
" style="stroke: #ffffff; stroke-width: 1.2"/>
    </defs>
    <g clip-path="url(#p290532a939)">
     <use xlink:href="#mdaf38d986e" x="381.361648" y="51.522643" style="fill: #c0392b; stroke: #ffffff; stroke-width: 1.2"/>
    </g>
   </g>
   <g id="text_20">
    <text style="font-size: 7.4px; font-family: 'Times New Roman', 'DejaVu Serif', serif; text-anchor: start; fill: #95a5a6" x="375.762928" y="153.751123" transform="rotate(-0 375.762928 153.751123)">Linear baseline</text>
   </g>
   <g id="text_21">
    <text style="font-size: 7.4px; font-family: 'Times New Roman', 'DejaVu Serif', serif; fill: #2c6fb0" transform="translate(454.145008 131.80592)">Deep graph</text>
    <text style="font-size: 7.4px; font-family: 'Times New Roman', 'DejaVu Serif', serif; fill: #2c6fb0" transform="translate(454.145008 139.650643)">(GEARS-like)</text>
   </g>
   <g id="text_22">
    <text style="font-size: 7.4px; font-family: 'Times New Roman', 'DejaVu Serif', serif; fill: #c0392b" transform="translate(386.960368 32.308077)">Fixed graph +</text>
    <text style="font-size: 7.4px; font-family: 'Times New Roman', 'DejaVu Serif', serif; fill: #c0392b" transform="translate(386.960368 40.1528)">linear readout</text>
    <text style="font-size: 7.4px; font-family: 'Times New Roman', 'DejaVu Serif', serif; fill: #c0392b" transform="translate(386.960368 47.997523)">(this work)</text>
   </g>
  </g>
 </g>
 <defs>
  <clipPath id="pdbe3fd16af">
   <rect x="49.793008" y="19.796563" width="207.36" height="176.256"/>
  </clipPath>
  <clipPath id="p290532a939">
   <rect x="314.177008" y="19.796563" width="186.624" height="176.256"/>
  </clipPath>
 </defs>
</svg>
