<?xml version="1.0" encoding="UTF-8" standalone="no"?>
<svg
   width="508.001008pt"
   height="234.558581pt"
   viewBox="0 0 508.001008 234.558581"
   version="1.1"
   id="svg134"
   sodipodi:docname="figure2_prediction_benchmark.svg"
   inkscape:export-filename="figure2_prediction_benchmark.png"
   inkscape:export-xdpi="600"
   inkscape:export-ydpi="600"
   inkscape:version="1.4.3 (0d15f75, 2025-12-25)"
   xmlns:inkscape="http://www.inkscape.org/namespaces/inkscape"
   xmlns:sodipodi="http://sodipodi.sourceforge.net/DTD/sodipodi-0.dtd"
   xmlns:xlink="http://www.w3.org/1999/xlink"
   xmlns="http://www.w3.org/2000/svg"
   xmlns:svg="http://www.w3.org/2000/svg"
   xmlns:rdf="http://www.w3.org/1999/02/22-rdf-syntax-ns#"
   xmlns:cc="http://creativecommons.org/ns#"
   xmlns:dc="http://purl.org/dc/elements/1.1/">
  <sodipodi:namedview
     id="namedview134"
     pagecolor="#ffffff"
     bordercolor="#000000"
     borderopacity="0.25"
     inkscape:showpageshadow="2"
     inkscape:pageopacity="0.0"
     inkscape:pagecheckerboard="0"
     inkscape:deskcolor="#d1d1d1"
     inkscape:document-units="pt"
     inkscape:zoom="1.242227"
     inkscape:cx="311.53726"
     inkscape:cy="126.78842"
     inkscape:window-width="1920"
     inkscape:window-height="991"
     inkscape:window-x="-9"
     inkscape:window-y="1304"
     inkscape:window-maximized="1"
     inkscape:current-layer="svg134" />
  <metadata
     id="metadata1">
    <rdf:RDF>
      <cc:Work>
        <dc:type
           rdf:resource="http://purl.org/dc/dcmitype/StillImage" />
        <dc:date>2026-07-14T19:42:02.326059</dc:date>
        <dc:format>image/svg+xml</dc:format>
        <dc:creator>
          <cc:Agent>
            <dc:title>Matplotlib v3.11.0, https://matplotlib.org/</dc:title>
          </cc:Agent>
        </dc:creator>
      </cc:Work>
    </rdf:RDF>
  </metadata>
  <defs
     id="defs1">
    <style
       type="text/css"
       id="style1">*{stroke-linejoin: round; stroke-linecap: butt}</style>
  </defs>
  <g
     id="figure_1"
     transform="matrix(1,0,0,0.89921613,0,23.639722)">
    <g
       id="patch_1">
      <path
         d="M 0,234.55858 H 508.00101 V -35.017754 H 0 Z"
         style="fill:#ffffff;stroke-width:1.07205"
         id="path1" />
    </g>
    <g
       id="axes_1">
      <g
         id="patch_2">
        <path
           d="M 49.793008,196.05256 H 257.15301 V 19.796563 H 49.793008 Z"
           style="fill:#ffffff"
           id="path2" />
      </g>
      <g
         id="matplotlib.axis_1">
        <g
           id="xtick_1">
          <g
             id="line2d_1">
            <defs
               id="defs2">
              <path
                 id="m5386f1e495"
                 d="M 0,0 V 3.5"
                 style="stroke:#000000;stroke-width:0.8" />
            </defs>
            <g
               id="g2">
              <use
                 xlink:href="#m5386f1e495"
                 x="73.719162"
                 y="196.05257"
                 style="stroke:#000000;stroke-width:0.8"
                 id="use2" />
            </g>
          </g>
          <g
             id="text_1">
            <text
               style="font-size:8px;font-family:'Times New Roman', 'DejaVu Serif', serif"
               transform="rotate(-30,433.41558,1.9773938)"
               id="text2">k-NN</text>
          </g>
        </g>
        <g
           id="xtick_2">
          <g
             id="line2d_2">
            <g
               id="g3">
              <use
                 xlink:href="#m5386f1e495"
                 x="113.59608"
                 y="196.05257"
                 style="stroke:#000000;stroke-width:0.8"
                 id="use3" />
            </g>
          </g>
          <g
             id="text_2">
            <text
               style="font-size:8px;font-family:'Times New Roman', 'DejaVu Serif', serif"
               transform="rotate(-30,462.24466,-39.253694)"
               id="text3">DoRothEA</text>
          </g>
        </g>
        <g
           id="xtick_3">
          <g
             id="line2d_3">
            <g
               id="g4">
              <use
                 xlink:href="#m5386f1e495"
                 x="153.47301"
                 y="196.05257"
                 style="stroke:#000000;stroke-width:0.8"
                 id="use4" />
            </g>
          </g>
          <g
             id="text_3">
            <text
               style="font-size:8px;font-family:'Times New Roman', 'DejaVu Serif', serif"
               transform="rotate(-30,476.40188,-135.24096)"
               id="text4">random</text>
          </g>
        </g>
        <g
           id="xtick_4">
          <g
             id="line2d_4">
            <g
               id="g5">
              <use
                 xlink:href="#m5386f1e495"
                 x="193.34993"
                 y="196.05257"
                 style="stroke:#000000;stroke-width:0.8"
                 id="use5" />
            </g>
          </g>
          <g
             id="text_4">
            <text
               style="font-size:8px;font-family:'Times New Roman', 'DejaVu Serif', serif"
               transform="rotate(-30,492.32721,-224.58404)"
               id="text5">perm</text>
          </g>
        </g>
        <g
           id="xtick_5">
          <g
             id="line2d_5">
            <g
               id="g6">
              <use
                 xlink:href="#m5386f1e495"
                 x="233.22685"
                 y="196.05257"
                 style="stroke:#000000;stroke-width:0.8"
                 id="use6" />
            </g>
          </g>
          <g
             id="text_5">
            <text
               style="font-size:8px;font-family:'Times New Roman', 'DejaVu Serif', serif"
               transform="rotate(-30,513.39192,-294.83763)"
               id="text6">0-hop</text>
          </g>
        </g>
      </g>
      <g
         id="matplotlib.axis_2">
        <g
           id="ytick_1">
          <g
             id="line2d_6">
            <defs
               id="defs6">
              <path
                 id="m71e44a9d54"
                 d="M 0,0 H -3.5"
                 style="stroke:#000000;stroke-width:0.8" />
            </defs>
            <g
               id="g7">
              <use
                 xlink:href="#m71e44a9d54"
                 x="49.793007"
                 y="181.60535"
                 style="stroke:#000000;stroke-width:0.8"
                 id="use7" />
            </g>
          </g>
          <g
             id="text_6">
            <text
               style="font-size:8px;font-family:'Times New Roman', 'DejaVu Serif', serif;text-anchor:end"
               x="42.793007"
               y="184.37878"
               id="text7">−80</text>
          </g>
        </g>
        <g
           id="ytick_2">
          <g
             id="line2d_7">
            <g
               id="g8">
              <use
                 xlink:href="#m71e44a9d54"
                 x="49.793007"
                 y="152.71092"
                 style="stroke:#000000;stroke-width:0.8"
                 id="use8" />
            </g>
          </g>
          <g
             id="text_7">
            <text
               style="font-size:8px;font-family:'Times New Roman', 'DejaVu Serif', serif;text-anchor:end"
               x="42.793007"
               y="155.48436"
               id="text8">−60</text>
          </g>
        </g>
        <g
           id="ytick_3">
          <g
             id="line2d_8">
            <g
               id="g9">
              <use
                 xlink:href="#m71e44a9d54"
                 x="49.793007"
                 y="123.8165"
                 style="stroke:#000000;stroke-width:0.8"
                 id="use9" />
            </g>
          </g>
          <g
             id="text_8">
            <text
               style="font-size:8px;font-family:'Times New Roman', 'DejaVu Serif', serif;text-anchor:end"
               x="42.793007"
               y="126.58994"
               id="text9">−40</text>
          </g>
        </g>
        <g
           id="ytick_4">
          <g
             id="line2d_9">
            <g
               id="g10">
              <use
                 xlink:href="#m71e44a9d54"
                 x="49.793007"
                 y="94.922073"
                 style="stroke:#000000;stroke-width:0.8"
                 id="use10" />
            </g>
          </g>
          <g
             id="text_9">
            <text
               style="font-size:8px;font-family:'Times New Roman', 'DejaVu Serif', serif;text-anchor:end"
               x="42.793007"
               y="97.695511"
               id="text10">−20</text>
          </g>
        </g>
        <g
           id="ytick_5">
          <g
             id="line2d_10">
            <g
               id="g11">
              <use
                 xlink:href="#m71e44a9d54"
                 x="49.793007"
                 y="66.027641"
                 style="stroke:#000000;stroke-width:0.8"
                 id="use11" />
            </g>
          </g>
          <g
             id="text_10">
            <text
               style="font-size:8px;font-family:'Times New Roman', 'DejaVu Serif', serif;text-anchor:end"
               x="42.793007"
               y="68.801079"
               id="text11">0</text>
          </g>
        </g>
        <g
           id="ytick_6">
          <g
             id="line2d_11">
            <g
               id="g12">
              <use
                 xlink:href="#m71e44a9d54"
                 x="49.793007"
                 y="37.133217"
                 style="stroke:#000000;stroke-width:0.8"
                 id="use12" />
            </g>
          </g>
          <g
             id="text_11">
            <text
               style="font-size:8px;font-family:'Times New Roman', 'DejaVu Serif', serif;text-anchor:end"
               x="42.793007"
               y="39.906654"
               id="text12">20</text>
          </g>
        </g>
        <g
           id="text_12">
          <text
             style="font-size:9px;font-family:'Times New Roman', 'DejaVu Serif', serif"
             transform="rotate(-90,81.081242,66.957305)"
             id="text13">Relative improvement</text>
          <text
             style="font-size:9px;font-family:'Times New Roman', 'DejaVu Serif', serif"
             transform="rotate(-90,91.301251,67.636437)"
             id="text14">(graph − linear) / linear (%)</text>
        </g>
      </g>
      <g
         id="line2d_12">
        <path
           d="M 49.793008,66.027644 H 257.15301"
           clip-path="url(#pdbe3fd16af)"
           style="fill:none;stroke:#1a1a1a;stroke-linecap:square"
           id="path14" />
      </g>
      <g
         id="patch_3">
        <path
           d="M 49.793008,196.05256 V 19.796563"
           style="fill:none;stroke:#000000;stroke-width:0.8;stroke-linecap:square;stroke-linejoin:miter"
           id="path15" />
      </g>
      <g
         id="patch_4">
        <path
           d="M 257.15301,196.05256 V 19.796563"
           style="fill:none;stroke:#000000;stroke-width:0.8;stroke-linecap:square;stroke-linejoin:miter"
           id="path16" />
      </g>
      <g
         id="patch_5">
        <path
           d="M 49.793008,196.05256 H 257.15301"
           style="fill:none;stroke:#000000;stroke-width:0.8;stroke-linecap:square;stroke-linejoin:miter"
           id="path17" />
      </g>
      <g
         id="patch_6">
        <path
           d="M 49.793008,19.796563 H 257.15301"
           style="fill:none;stroke:#000000;stroke-width:0.8;stroke-linecap:square;stroke-linejoin:miter"
           id="path18" />
      </g>
      <g
         id="PathCollection_1">
        <path
           d="m 84.681754,79.102937 c 0.513564,0 1.006162,-0.204041 1.369306,-0.567185 0.363145,-0.363144 0.567186,-0.855743 0.567186,-1.369306 0,-0.513564 -0.204041,-1.006162 -0.567186,-1.369307 -0.363144,-0.363144 -0.855742,-0.567185 -1.369306,-0.567185 -0.513564,0 -1.006162,0.204041 -1.369306,0.567185 -0.363145,0.363145 -0.567186,0.855743 -0.567186,1.369307 0,0.513563 0.204041,1.006162 0.567186,1.369306 0.363144,0.363144 0.855742,0.567185 1.369306,0.567185 z"
           clip-path="url(#pdbe3fd16af)"
           style="fill:#2c6fb0;fill-opacity:0.78"
           id="path19" />
        <path
           d="m 124.74104,78.178316 c 0.51356,0 1.00616,-0.204041 1.36931,-0.567185 0.36314,-0.363145 0.56718,-0.855743 0.56718,-1.369307 0,-0.513563 -0.20404,-1.006162 -0.56718,-1.369306 -0.36315,-0.363145 -0.85575,-0.567186 -1.36931,-0.567186 -0.51356,0 -1.00616,0.204041 -1.36931,0.567186 -0.36314,0.363144 -0.56718,0.855743 -0.56718,1.369306 0,0.513564 0.20404,1.006162 0.56718,1.369307 0.36315,0.363144 0.85575,0.567185 1.36931,0.567185 z"
           clip-path="url(#pdbe3fd16af)"
           style="fill:#2c6fb0;fill-opacity:0.78"
           id="path20" />
        <path
           d="m 146.58512,78.380577 c 0.51357,0 1.00617,-0.204041 1.36931,-0.567185 0.36314,-0.363145 0.56719,-0.855743 0.56719,-1.369307 0,-0.513563 -0.20405,-1.006162 -0.56719,-1.369306 -0.36314,-0.363145 -0.85574,-0.567186 -1.36931,-0.567186 -0.51356,0 -1.00616,0.204041 -1.3693,0.567186 -0.36315,0.363144 -0.56719,0.855743 -0.56719,1.369306 0,0.513564 0.20404,1.006162 0.56719,1.369307 0.36314,0.363144 0.85574,0.567185 1.3693,0.567185 z"
           clip-path="url(#pdbe3fd16af)"
           style="fill:#2c6fb0;fill-opacity:0.78"
           id="path21" />
        <path
           d="m 184.74408,78.221657 c 0.51357,0 1.00617,-0.204041 1.36931,-0.567185 0.36315,-0.363144 0.56719,-0.855743 0.56719,-1.369306 0,-0.513564 -0.20404,-1.006162 -0.56719,-1.369307 -0.36314,-0.363144 -0.85574,-0.567185 -1.36931,-0.567185 -0.51356,0 -1.00616,0.204041 -1.3693,0.567185 -0.36315,0.363145 -0.56719,0.855743 -0.56719,1.369307 0,0.513563 0.20404,1.006162 0.56719,1.369306 0.36314,0.363144 0.85574,0.567185 1.3693,0.567185 z"
           clip-path="url(#pdbe3fd16af)"
           style="fill:#2c6fb0;fill-opacity:0.78"
           id="path22" />
        <path
           d="m 235.92699,78.149421 c 0.51356,0 1.00616,-0.204041 1.3693,-0.567185 0.36315,-0.363144 0.56719,-0.855743 0.56719,-1.369306 0,-0.513564 -0.20404,-1.006162 -0.56719,-1.369307 -0.36314,-0.363144 -0.85574,-0.567185 -1.3693,-0.567185 -0.51357,0 -1.00617,0.204041 -1.36931,0.567185 -0.36314,0.363145 -0.56718,0.855743 -0.56718,1.369307 0,0.513563 0.20404,1.006162 0.56718,1.369306 0.36314,0.363144 0.85574,0.567185 1.36931,0.567185 z"
           clip-path="url(#pdbe3fd16af)"
           style="fill:#2c6fb0;fill-opacity:0.78"
           id="path23" />
        <path
           d="m 75.476364,73.627444 c 0.513564,0 1.006162,-0.204041 1.369307,-0.567186 0.363144,-0.363144 0.567185,-0.855742 0.567185,-1.369306 0,-0.513564 -0.204041,-1.006162 -0.567185,-1.369306 -0.363145,-0.363145 -0.855743,-0.567186 -1.369307,-0.567186 -0.513563,0 -1.006162,0.204041 -1.369306,0.567186 -0.363145,0.363144 -0.567186,0.855742 -0.567186,1.369306 0,0.513564 0.204041,1.006162 0.567186,1.369306 0.363144,0.363145 0.855743,0.567186 1.369306,0.567186 z"
           clip-path="url(#pdbe3fd16af)"
           style="fill:#2c6fb0;fill-opacity:0.78"
           id="path24" />
        <path
           d="m 125.00113,74.32091 c 0.51356,0 1.00616,-0.204041 1.36931,-0.567185 0.36314,-0.363145 0.56718,-0.855743 0.56718,-1.369307 0,-0.513563 -0.20404,-1.006162 -0.56718,-1.369306 -0.36315,-0.363144 -0.85575,-0.567185 -1.36931,-0.567185 -0.51356,0 -1.00616,0.204041 -1.36931,0.567185 -0.36314,0.363144 -0.56718,0.855743 -0.56718,1.369306 0,0.513564 0.20404,1.006162 0.56718,1.369307 0.36315,0.363144 0.85575,0.567185 1.36931,0.567185 z"
           clip-path="url(#pdbe3fd16af)"
           style="fill:#2c6fb0;fill-opacity:0.78"
           id="path25" />
        <path
           d="m 162.43277,74.277568 c 0.51356,0 1.00616,-0.204041 1.36931,-0.567185 0.36314,-0.363144 0.56718,-0.855743 0.56718,-1.369306 0,-0.513564 -0.20404,-1.006162 -0.56718,-1.369307 -0.36315,-0.363144 -0.85575,-0.567185 -1.36931,-0.567185 -0.51356,0 -1.00616,0.204041 -1.36931,0.567185 -0.36314,0.363145 -0.56718,0.855743 -0.56718,1.369307 0,0.513563 0.20404,1.006162 0.56718,1.369306 0.36315,0.363144 0.85575,0.567185 1.36931,0.567185 z"
           clip-path="url(#pdbe3fd16af)"
           style="fill:#2c6fb0;fill-opacity:0.78"
           id="path26" />
        <path
           d="m 222.21772,74.42204 c 0.51357,0 1.00617,-0.204041 1.36931,-0.567185 0.36314,-0.363144 0.56719,-0.855743 0.56719,-1.369306 0,-0.513564 -0.20405,-1.006162 -0.56719,-1.369307 -0.36314,-0.363144 -0.85574,-0.567185 -1.36931,-0.567185 -0.51356,0 -1.00616,0.204041 -1.3693,0.567185 -0.36315,0.363145 -0.56719,0.855743 -0.56719,1.369307 0,0.513563 0.20404,1.006162 0.56719,1.369306 0.36314,0.363144 0.85574,0.567185 1.3693,0.567185 z"
           clip-path="url(#pdbe3fd16af)"
           style="fill:#2c6fb0;fill-opacity:0.78"
           id="path27" />
        <path
           d="m 76.095133,47.145702 c 0.513564,0 1.006162,-0.204041 1.369306,-0.567185 0.363145,-0.363145 0.567186,-0.855743 0.567186,-1.369307 0,-0.513563 -0.204041,-1.006162 -0.567186,-1.369306 -0.363144,-0.363144 -0.855742,-0.567185 -1.369306,-0.567185 -0.513564,0 -1.006162,0.204041 -1.369306,0.567185 -0.363145,0.363144 -0.567186,0.855743 -0.567186,1.369306 0,0.513564 0.204041,1.006162 0.567186,1.369307 0.363144,0.363144 0.855742,0.567185 1.369306,0.567185 z"
           clip-path="url(#pdbe3fd16af)"
           style="fill:#2c6fb0;fill-opacity:0.78"
           id="path28" />
        <path
           d="m 112.58051,47.477988 c 0.51356,0 1.00616,-0.204041 1.3693,-0.567185 0.36315,-0.363145 0.56719,-0.855743 0.56719,-1.369307 0,-0.513563 -0.20404,-1.006162 -0.56719,-1.369306 -0.36314,-0.363144 -0.85574,-0.567185 -1.3693,-0.567185 -0.51357,0 -1.00617,0.204041 -1.36931,0.567185 -0.36315,0.363144 -0.56719,0.855743 -0.56719,1.369306 0,0.513564 0.20404,1.006162 0.56719,1.369307 0.36314,0.363144 0.85574,0.567185 1.36931,0.567185 z"
           clip-path="url(#pdbe3fd16af)"
           style="fill:#2c6fb0;fill-opacity:0.78"
           id="path29" />
        <path
           d="m 153.21382,47.26128 c 0.51356,0 1.00616,-0.204041 1.36931,-0.567186 0.36314,-0.363144 0.56718,-0.855742 0.56718,-1.369306 0,-0.513564 -0.20404,-1.006162 -0.56718,-1.369306 -0.36315,-0.363145 -0.85575,-0.567186 -1.36931,-0.567186 -0.51356,0 -1.00616,0.204041 -1.36931,0.567186 -0.36314,0.363144 -0.56718,0.855742 -0.56718,1.369306 0,0.513564 0.20404,1.006162 0.56718,1.369306 0.36315,0.363145 0.85575,0.567186 1.36931,0.567186 z"
           clip-path="url(#pdbe3fd16af)"
           style="fill:#2c6fb0;fill-opacity:0.78"
           id="path30" />
        <path
           d="m 203.87896,47.506882 c 0.51357,0 1.00617,-0.204041 1.36931,-0.567185 0.36314,-0.363144 0.56719,-0.855743 0.56719,-1.369306 0,-0.513564 -0.20405,-1.006162 -0.56719,-1.369307 -0.36314,-0.363144 -0.85574,-0.567185 -1.36931,-0.567185 -0.51356,0 -1.00616,0.204041 -1.3693,0.567185 -0.36315,0.363145 -0.56719,0.855743 -0.56719,1.369307 0,0.513563 0.20404,1.006162 0.56719,1.369306 0.36314,0.363144 0.85574,0.567185 1.3693,0.567185 z"
           clip-path="url(#pdbe3fd16af)"
           style="fill:#2c6fb0;fill-opacity:0.78"
           id="path31" />
        <path
           d="m 242.12754,47.492435 c 0.51356,0 1.00616,-0.204041 1.3693,-0.567185 0.36315,-0.363144 0.56719,-0.855743 0.56719,-1.369307 0,-0.513563 -0.20404,-1.006162 -0.56719,-1.369306 -0.36314,-0.363144 -0.85574,-0.567185 -1.3693,-0.567185 -0.51357,0 -1.00616,0.204041 -1.36931,0.567185 -0.36314,0.363144 -0.56718,0.855743 -0.56718,1.369306 0,0.513564 0.20404,1.006163 0.56718,1.369307 0.36315,0.363144 0.85574,0.567185 1.36931,0.567185 z"
           clip-path="url(#pdbe3fd16af)"
           style="fill:#2c6fb0;fill-opacity:0.78"
           id="path32" />
        <path
           d="m 74.572709,41.218553 c 0.750108,0 1.469594,-0.298021 2,-0.828427 0.530407,-0.530406 0.828428,-1.249893 0.828428,-2 0,-0.750108 -0.298021,-1.469594 -0.828428,-2 -0.530406,-0.530406 -1.249892,-0.828427 -2,-0.828427 -0.750107,0 -1.469593,0.298021 -2,0.828427 -0.530406,0.530406 -0.828427,1.249892 -0.828427,2 0,0.750107 0.298021,1.469594 0.828427,2 0.530407,0.530406 1.249893,0.828427 2,0.828427 z"
           clip-path="url(#pdbe3fd16af)"
           style="fill:#27ae60;fill-opacity:0.78"
           id="path33" />
        <path
           d="m 123.53969,42.01315 c 0.7501,0 1.46959,-0.298021 2,-0.828427 0.5304,-0.530407 0.82843,-1.249893 0.82843,-2 0,-0.750108 -0.29803,-1.469594 -0.82843,-2 -0.53041,-0.530407 -1.2499,-0.828428 -2,-0.828428 -0.75011,0 -1.4696,0.298021 -2,0.828428 -0.53041,0.530406 -0.82843,1.249892 -0.82843,2 0,0.750107 0.29802,1.469593 0.82843,2 0.5304,0.530406 1.24989,0.828427 2,0.828427 z"
           clip-path="url(#pdbe3fd16af)"
           style="fill:#27ae60;fill-opacity:0.78"
           id="path34" />
        <path
           d="m 146.81169,41.377472 c 0.7501,0 1.46959,-0.298021 2,-0.828427 0.5304,-0.530406 0.82842,-1.249892 0.82842,-2 0,-0.750108 -0.29802,-1.469594 -0.82842,-2 -0.53041,-0.530406 -1.2499,-0.828427 -2,-0.828427 -0.75011,0 -1.4696,0.298021 -2,0.828427 -0.53041,0.530406 -0.82843,1.249892 -0.82843,2 0,0.750108 0.29802,1.469594 0.82843,2 0.5304,0.530406 1.24989,0.828427 2,0.828427 z"
           clip-path="url(#pdbe3fd16af)"
           style="fill:#27ae60;fill-opacity:0.78"
           id="path35" />
        <path
           d="m 244.69973,42.056491 c 0.75011,0 1.4696,-0.298021 2,-0.828427 0.53041,-0.530406 0.82843,-1.249892 0.82843,-2 0,-0.750108 -0.29802,-1.469594 -0.82843,-2 -0.5304,-0.530406 -1.24989,-0.828427 -2,-0.828427 -0.7501,0 -1.46959,0.298021 -2,0.828427 -0.5304,0.530406 -0.82842,1.249892 -0.82842,2 0,0.750108 0.29802,1.469594 0.82842,2 0.53041,0.530406 1.2499,0.828427 2,0.828427 z"
           clip-path="url(#pdbe3fd16af)"
           style="fill:#27ae60;fill-opacity:0.78"
           id="path36" />
        <path
           d="m 78.363698,61.087263 c 0.513564,0 1.006162,-0.204041 1.369307,-0.567186 0.363144,-0.363144 0.567185,-0.855742 0.567185,-1.369306 0,-0.513564 -0.204041,-1.006162 -0.567185,-1.369306 -0.363145,-0.363145 -0.855743,-0.567186 -1.369307,-0.567186 -0.513563,0 -1.006162,0.204041 -1.369306,0.567186 -0.363145,0.363144 -0.567186,0.855742 -0.567186,1.369306 0,0.513564 0.204041,1.006162 0.567186,1.369306 0.363144,0.363145 0.855743,0.567186 1.369306,0.567186 z"
           clip-path="url(#pdbe3fd16af)"
           style="fill:#2c6fb0;fill-opacity:0.78"
           id="path37" />
        <path
           d="m 111.8393,58.573448 c 0.51356,0 1.00616,-0.204041 1.36931,-0.567186 0.36314,-0.363144 0.56718,-0.855742 0.56718,-1.369306 0,-0.513564 -0.20404,-1.006162 -0.56718,-1.369306 -0.36315,-0.363145 -0.85575,-0.567186 -1.36931,-0.567186 -0.51356,0 -1.00616,0.204041 -1.36931,0.567186 -0.36314,0.363144 -0.56718,0.855742 -0.56718,1.369306 0,0.513564 0.20404,1.006162 0.56718,1.369306 0.36315,0.363145 0.85575,0.567186 1.36931,0.567186 z"
           clip-path="url(#pdbe3fd16af)"
           style="fill:#2c6fb0;fill-opacity:0.78"
           id="path38" />
        <path
           d="m 157.25183,58.963522 c 0.51356,0 1.00616,-0.204041 1.3693,-0.567185 0.36315,-0.363144 0.56719,-0.855743 0.56719,-1.369306 0,-0.513564 -0.20404,-1.006162 -0.56719,-1.369307 -0.36314,-0.363144 -0.85574,-0.567185 -1.3693,-0.567185 -0.51357,0 -1.00616,0.204041 -1.36931,0.567185 -0.36314,0.363145 -0.56718,0.855743 -0.56718,1.369307 0,0.513563 0.20404,1.006162 0.56718,1.369306 0.36315,0.363144 0.85574,0.567185 1.36931,0.567185 z"
           clip-path="url(#pdbe3fd16af)"
           style="fill:#2c6fb0;fill-opacity:0.78"
           id="path39" />
        <path
           d="m 183.12449,58.486764 c 0.51357,0 1.00617,-0.204041 1.36931,-0.567185 0.36314,-0.363144 0.56719,-0.855743 0.56719,-1.369306 0,-0.513564 -0.20405,-1.006162 -0.56719,-1.369307 -0.36314,-0.363144 -0.85574,-0.567185 -1.36931,-0.567185 -0.51356,0 -1.00616,0.204041 -1.3693,0.567185 -0.36315,0.363145 -0.56719,0.855743 -0.56719,1.369307 0,0.513563 0.20404,1.006162 0.56719,1.369306 0.36314,0.363144 0.85574,0.567185 1.3693,0.567185 z"
           clip-path="url(#pdbe3fd16af)"
           style="fill:#2c6fb0;fill-opacity:0.78"
           id="path40" />
        <path
           d="m 242.03072,58.631236 c 0.51356,0 1.00616,-0.204041 1.3693,-0.567185 0.36315,-0.363144 0.56719,-0.855743 0.56719,-1.369306 0,-0.513564 -0.20404,-1.006162 -0.56719,-1.369307 -0.36314,-0.363144 -0.85574,-0.567185 -1.3693,-0.567185 -0.51357,0 -1.00617,0.204041 -1.36931,0.567185 -0.36314,0.363145 -0.56718,0.855743 -0.56718,1.369307 0,0.513563 0.20404,1.006162 0.56718,1.369306 0.36314,0.363144 0.85574,0.567185 1.36931,0.567185 z"
           clip-path="url(#pdbe3fd16af)"
           style="fill:#2c6fb0;fill-opacity:0.78"
           id="path41" />
        <path
           d="m 81.47436,51.985518 c 0.513564,0 1.006162,-0.204041 1.369306,-0.567185 0.363145,-0.363144 0.567186,-0.855743 0.567186,-1.369306 0,-0.513564 -0.204041,-1.006162 -0.567186,-1.369307 -0.363144,-0.363144 -0.855742,-0.567185 -1.369306,-0.567185 -0.513564,0 -1.006162,0.204041 -1.369306,0.567185 -0.363145,0.363145 -0.567186,0.855743 -0.567186,1.369307 0,0.513563 0.204041,1.006162 0.567186,1.369306 0.363144,0.363144 0.855742,0.567185 1.369306,0.567185 z"
           clip-path="url(#pdbe3fd16af)"
           style="fill:#2c6fb0;fill-opacity:0.78"
           id="path42" />
        <path
           d="m 109.64852,52.28891 c 0.51356,0 1.00616,-0.204041 1.3693,-0.567185 0.36315,-0.363145 0.56719,-0.855743 0.56719,-1.369307 0,-0.513563 -0.20404,-1.006162 -0.56719,-1.369306 -0.36314,-0.363144 -0.85574,-0.567185 -1.3693,-0.567185 -0.51357,0 -1.00617,0.204041 -1.36931,0.567185 -0.36315,0.363144 -0.56719,0.855743 -0.56719,1.369306 0,0.513564 0.20404,1.006162 0.56719,1.369307 0.36314,0.363144 0.85574,0.567185 1.36931,0.567185 z"
           clip-path="url(#pdbe3fd16af)"
           style="fill:#2c6fb0;fill-opacity:0.78"
           id="path43" />
        <path
           d="m 145.76338,52.433382 c 0.51356,0 1.00616,-0.204041 1.36931,-0.567185 0.36314,-0.363145 0.56718,-0.855743 0.56718,-1.369307 0,-0.513563 -0.20404,-1.006162 -0.56718,-1.369306 -0.36315,-0.363144 -0.85575,-0.567185 -1.36931,-0.567185 -0.51356,0 -1.00616,0.204041 -1.36931,0.567185 -0.36314,0.363144 -0.56718,0.855743 -0.56718,1.369306 0,0.513564 0.20404,1.006162 0.56718,1.369307 0.36315,0.363144 0.85575,0.567185 1.36931,0.567185 z"
           clip-path="url(#pdbe3fd16af)"
           style="fill:#2c6fb0;fill-opacity:0.78"
           id="path44" />
        <path
           d="m 231.47441,52.418935 c 0.51356,0 1.00616,-0.204041 1.3693,-0.567185 0.36315,-0.363145 0.56719,-0.855743 0.56719,-1.369307 0,-0.513563 -0.20404,-1.006162 -0.56719,-1.369306 -0.36314,-0.363145 -0.85574,-0.567186 -1.3693,-0.567186 -0.51357,0 -1.00617,0.204041 -1.36931,0.567186 -0.36315,0.363144 -0.56719,0.855743 -0.56719,1.369306 0,0.513564 0.20404,1.006162 0.56719,1.369307 0.36314,0.363144 0.85574,0.567185 1.36931,0.567185 z"
           clip-path="url(#pdbe3fd16af)"
           style="fill:#2c6fb0;fill-opacity:0.78"
           id="path45" />
        <path
           d="m 73.2982,164.37039 c 0.513564,0 1.006162,-0.20404 1.369307,-0.56719 0.363144,-0.36314 0.567185,-0.85574 0.567185,-1.3693 0,-0.51357 -0.204041,-1.00616 -0.567185,-1.36931 -0.363145,-0.36314 -0.855743,-0.56718 -1.369307,-0.56718 -0.513563,0 -1.006162,0.20404 -1.369306,0.56718 -0.363144,0.36315 -0.567185,0.85574 -0.567185,1.36931 0,0.51356 0.204041,1.00616 0.567185,1.3693 0.363144,0.36315 0.855743,0.56719 1.369306,0.56719 z"
           clip-path="url(#pdbe3fd16af)"
           style="fill:#2c6fb0;fill-opacity:0.78"
           id="path46" />
        <path
           d="m 104.72466,163.46021 c 0.51357,0 1.00617,-0.20404 1.36931,-0.56718 0.36314,-0.36315 0.56718,-0.85574 0.56718,-1.36931 0,-0.51356 -0.20404,-1.00616 -0.56718,-1.3693 -0.36314,-0.36315 -0.85574,-0.56719 -1.36931,-0.56719 -0.51356,0 -1.00616,0.20404 -1.3693,0.56719 -0.36315,0.36314 -0.56719,0.85574 -0.56719,1.3693 0,0.51357 0.20404,1.00616 0.56719,1.36931 0.36314,0.36314 0.85574,0.56718 1.3693,0.56718 z"
           clip-path="url(#pdbe3fd16af)"
           style="fill:#2c6fb0;fill-opacity:0.78"
           id="path47" />
        <path
           d="m 147.14272,163.99476 c 0.51356,0 1.00616,-0.20404 1.3693,-0.56718 0.36315,-0.36315 0.56719,-0.85575 0.56719,-1.36931 0,-0.51356 -0.20404,-1.00616 -0.56719,-1.36931 -0.36314,-0.36314 -0.85574,-0.56718 -1.3693,-0.56718 -0.51357,0 -1.00616,0.20404 -1.36931,0.56718 -0.36314,0.36315 -0.56718,0.85575 -0.56718,1.36931 0,0.51356 0.20404,1.00616 0.56718,1.36931 0.36315,0.36314 0.85574,0.56718 1.36931,0.56718 z"
           clip-path="url(#pdbe3fd16af)"
           style="fill:#2c6fb0;fill-opacity:0.78"
           id="path48" />
        <path
           d="m 195.70443,163.41687 c 0.51357,0 1.00617,-0.20404 1.36931,-0.56718 0.36314,-0.36315 0.56719,-0.85575 0.56719,-1.36931 0,-0.51356 -0.20405,-1.00616 -0.56719,-1.36931 -0.36314,-0.36314 -0.85574,-0.56718 -1.36931,-0.56718 -0.51356,0 -1.00616,0.20404 -1.3693,0.56718 -0.36315,0.36315 -0.56719,0.85575 -0.56719,1.36931 0,0.51356 0.20404,1.00616 0.56719,1.36931 0.36314,0.36314 0.85574,0.56718 1.3693,0.56718 z"
           clip-path="url(#pdbe3fd16af)"
           style="fill:#2c6fb0;fill-opacity:0.78"
           id="path49" />
        <path
           d="m 238.87637,163.53245 c 0.51356,0 1.00616,-0.20404 1.3693,-0.56718 0.36315,-0.36315 0.56719,-0.85575 0.56719,-1.36931 0,-0.51356 -0.20404,-1.00616 -0.56719,-1.36931 -0.36314,-0.36314 -0.85574,-0.56718 -1.3693,-0.56718 -0.51357,0 -1.00617,0.20404 -1.36931,0.56718 -0.36315,0.36315 -0.56719,0.85575 -0.56719,1.36931 0,0.51356 0.20404,1.00616 0.56719,1.36931 0.36314,0.36314 0.85574,0.56718 1.36931,0.56718 z"
           clip-path="url(#pdbe3fd16af)"
           style="fill:#2c6fb0;fill-opacity:0.78"
           id="path50" />
        <path
           d="m 76.978722,61.332865 c 0.513564,0 1.006162,-0.204041 1.369307,-0.567185 0.363144,-0.363144 0.567185,-0.855743 0.567185,-1.369306 0,-0.513564 -0.204041,-1.006162 -0.567185,-1.369307 -0.363145,-0.363144 -0.855743,-0.567185 -1.369307,-0.567185 -0.513563,0 -1.006162,0.204041 -1.369306,0.567185 -0.363144,0.363145 -0.567185,0.855743 -0.567185,1.369307 0,0.513563 0.204041,1.006162 0.567185,1.369306 0.363144,0.363144 0.855743,0.567185 1.369306,0.567185 z"
           clip-path="url(#pdbe3fd16af)"
           style="fill:#2c6fb0;fill-opacity:0.78"
           id="path51" />
        <path
           d="m 104.15438,61.809623 c 0.51356,0 1.00616,-0.204041 1.36931,-0.567185 0.36314,-0.363144 0.56718,-0.855743 0.56718,-1.369306 0,-0.513564 -0.20404,-1.006162 -0.56718,-1.369307 -0.36315,-0.363144 -0.85575,-0.567185 -1.36931,-0.567185 -0.51356,0 -1.00616,0.204041 -1.36931,0.567185 -0.36314,0.363145 -0.56718,0.855743 -0.56718,1.369307 0,0.513563 0.20404,1.006162 0.56718,1.369306 0.36315,0.363144 0.85575,0.567185 1.36931,0.567185 z"
           clip-path="url(#pdbe3fd16af)"
           style="fill:#2c6fb0;fill-opacity:0.78"
           id="path52" />
        <path
           d="m 141.64465,61.925201 c 0.51357,0 1.00617,-0.204041 1.36931,-0.567185 0.36314,-0.363145 0.56718,-0.855743 0.56718,-1.369307 0,-0.513563 -0.20404,-1.006162 -0.56718,-1.369306 -0.36314,-0.363144 -0.85574,-0.567185 -1.36931,-0.567185 -0.51356,0 -1.00616,0.204041 -1.3693,0.567185 -0.36315,0.363144 -0.56719,0.855743 -0.56719,1.369306 0,0.513564 0.20404,1.006162 0.56719,1.369307 0.36314,0.363144 0.85574,0.567185 1.3693,0.567185 z"
           clip-path="url(#pdbe3fd16af)"
           style="fill:#2c6fb0;fill-opacity:0.78"
           id="path53" />
        <path
           d="m 228.25533,62.055226 c 0.51356,0 1.00616,-0.204041 1.3693,-0.567185 0.36315,-0.363145 0.56719,-0.855743 0.56719,-1.369307 0,-0.513563 -0.20404,-1.006162 -0.56719,-1.369306 -0.36314,-0.363144 -0.85574,-0.567185 -1.3693,-0.567185 -0.51357,0 -1.00617,0.204041 -1.36931,0.567185 -0.36314,0.363144 -0.56719,0.855743 -0.56719,1.369306 0,0.513564 0.20405,1.006162 0.56719,1.369307 0.36314,0.363144 0.85574,0.567185 1.36931,0.567185 z"
           clip-path="url(#pdbe3fd16af)"
           style="fill:#2c6fb0;fill-opacity:0.78"
           id="path54" />
        <path
           d="m 63.018248,101.43833 c 0.513564,0 1.006162,-0.20404 1.369307,-0.56719 0.363144,-0.36314 0.567185,-0.85574 0.567185,-1.369303 0,-0.513563 -0.204041,-1.006162 -0.567185,-1.369306 -0.363145,-0.363144 -0.855743,-0.567185 -1.369307,-0.567185 -0.513563,0 -1.006162,0.204041 -1.369306,0.567185 -0.363145,0.363144 -0.567186,0.855743 -0.567186,1.369306 0,0.513563 0.204041,1.006163 0.567186,1.369303 0.363144,0.36315 0.855743,0.56719 1.369306,0.56719 z"
           clip-path="url(#pdbe3fd16af)"
           style="fill:#2c6fb0;fill-opacity:0.78"
           id="path55" />
        <path
           d="m 120.36137,99.935819 c 0.51357,0 1.00617,-0.204041 1.36931,-0.567186 0.36314,-0.363144 0.56719,-0.855742 0.56719,-1.369306 0,-0.513564 -0.20405,-1.006162 -0.56719,-1.369306 -0.36314,-0.363145 -0.85574,-0.567186 -1.36931,-0.567186 -0.51356,0 -1.00616,0.204041 -1.3693,0.567186 -0.36315,0.363144 -0.56719,0.855742 -0.56719,1.369306 0,0.513564 0.20404,1.006162 0.56719,1.369306 0.36314,0.363145 0.85574,0.567186 1.3693,0.567186 z"
           clip-path="url(#pdbe3fd16af)"
           style="fill:#2c6fb0;fill-opacity:0.78"
           id="path56" />
        <path
           d="m 155.89062,102.30516 c 0.51357,0 1.00616,-0.20404 1.36931,-0.56718 0.36314,-0.36315 0.56718,-0.85575 0.56718,-1.36931 0,-0.513564 -0.20404,-1.006162 -0.56718,-1.369306 -0.36315,-0.363145 -0.85574,-0.567186 -1.36931,-0.567186 -0.51356,0 -1.00616,0.204041 -1.3693,0.567186 -0.36315,0.363144 -0.56719,0.855742 -0.56719,1.369306 0,0.51356 0.20404,1.00616 0.56719,1.36931 0.36314,0.36314 0.85574,0.56718 1.3693,0.56718 z"
           clip-path="url(#pdbe3fd16af)"
           style="fill:#2c6fb0;fill-opacity:0.78"
           id="path57" />
        <path
           d="m 190.29001,99.863583 c 0.51356,0 1.00616,-0.204041 1.3693,-0.567186 0.36315,-0.363144 0.56719,-0.855742 0.56719,-1.369306 0,-0.513564 -0.20404,-1.006162 -0.56719,-1.369306 -0.36314,-0.363145 -0.85574,-0.567186 -1.3693,-0.567186 -0.51357,0 -1.00616,0.204041 -1.36931,0.567186 -0.36314,0.363144 -0.56718,0.855742 -0.56718,1.369306 0,0.513564 0.20404,1.006162 0.56718,1.369306 0.36315,0.363145 0.85574,0.567186 1.36931,0.567186 z"
           clip-path="url(#pdbe3fd16af)"
           style="fill:#2c6fb0;fill-opacity:0.78"
           id="path58" />
        <path
           d="m 221.84162,101.01936 c 0.51357,0 1.00616,-0.20404 1.36931,-0.56719 0.36314,-0.36314 0.56719,-0.855738 0.56719,-1.369302 0,-0.513564 -0.20405,-1.006162 -0.56719,-1.369306 -0.36315,-0.363145 -0.85574,-0.567186 -1.36931,-0.567186 -0.51356,0 -1.00616,0.204041 -1.3693,0.567186 -0.36315,0.363144 -0.56719,0.855742 -0.56719,1.369306 0,0.513564 0.20404,1.006162 0.56719,1.369302 0.36314,0.36315 0.85574,0.56719 1.3693,0.56719 z"
           clip-path="url(#pdbe3fd16af)"
           style="fill:#2c6fb0;fill-opacity:0.78"
           id="path59" />
        <path
           d="m 79.484387,71.200312 c 0.513564,0 1.006162,-0.204041 1.369307,-0.567185 0.363144,-0.363145 0.567185,-0.855743 0.567185,-1.369307 0,-0.513563 -0.204041,-1.006162 -0.567185,-1.369306 -0.363145,-0.363144 -0.855743,-0.567185 -1.369307,-0.567185 -0.513563,0 -1.006162,0.204041 -1.369306,0.567185 -0.363145,0.363144 -0.567186,0.855743 -0.567186,1.369306 0,0.513564 0.204041,1.006162 0.567186,1.369307 0.363144,0.363144 0.855743,0.567185 1.369306,0.567185 z"
           clip-path="url(#pdbe3fd16af)"
           style="fill:#2c6fb0;fill-opacity:0.78"
           id="path60" />
        <path
           d="m 122.15982,71.518151 c 0.51356,0 1.00616,-0.204041 1.3693,-0.567186 0.36315,-0.363144 0.56719,-0.855743 0.56719,-1.369306 0,-0.513564 -0.20404,-1.006162 -0.56719,-1.369307 -0.36314,-0.363144 -0.85574,-0.567185 -1.3693,-0.567185 -0.51357,0 -1.00616,0.204041 -1.36931,0.567185 -0.36314,0.363145 -0.56718,0.855743 -0.56718,1.369307 0,0.513563 0.20404,1.006162 0.56718,1.369306 0.36315,0.363145 0.85574,0.567186 1.36931,0.567186 z"
           clip-path="url(#pdbe3fd16af)"
           style="fill:#2c6fb0;fill-opacity:0.78"
           id="path61" />
        <path
           d="m 148.54352,71.532598 c 0.51356,0 1.00616,-0.204041 1.3693,-0.567185 0.36315,-0.363145 0.56719,-0.855743 0.56719,-1.369307 0,-0.513563 -0.20404,-1.006162 -0.56719,-1.369306 -0.36314,-0.363145 -0.85574,-0.567186 -1.3693,-0.567186 -0.51357,0 -1.00617,0.204041 -1.36931,0.567186 -0.36314,0.363144 -0.56719,0.855743 -0.56719,1.369306 0,0.513564 0.20405,1.006162 0.56719,1.369307 0.36314,0.363144 0.85574,0.567185 1.36931,0.567185 z"
           clip-path="url(#pdbe3fd16af)"
           style="fill:#2c6fb0;fill-opacity:0.78"
           id="path62" />
        <path
           d="m 234.90017,71.503703 c 0.51356,0 1.00616,-0.204041 1.3693,-0.567185 0.36315,-0.363144 0.56719,-0.855743 0.56719,-1.369306 0,-0.513564 -0.20404,-1.006162 -0.56719,-1.369307 -0.36314,-0.363144 -0.85574,-0.567185 -1.3693,-0.567185 -0.51357,0 -1.00617,0.204041 -1.36931,0.567185 -0.36315,0.363145 -0.56719,0.855743 -0.56719,1.369307 0,0.513563 0.20404,1.006162 0.56719,1.369306 0.36314,0.363144 0.85574,0.567185 1.36931,0.567185 z"
           clip-path="url(#pdbe3fd16af)"
           style="fill:#2c6fb0;fill-opacity:0.78"
           id="path63" />
        <path
           d="m 82.186875,133.9879 c 0.513563,0 1.006162,-0.20404 1.369306,-0.56719 0.363144,-0.36314 0.567185,-0.85574 0.567185,-1.3693 0,-0.51357 -0.204041,-1.00616 -0.567185,-1.36931 -0.363144,-0.36314 -0.855743,-0.56718 -1.369306,-0.56718 -0.513564,0 -1.006162,0.20404 -1.369307,0.56718 -0.363144,0.36315 -0.567185,0.85574 -0.567185,1.36931 0,0.51356 0.204041,1.00616 0.567185,1.3693 0.363145,0.36315 0.855743,0.56719 1.369307,0.56719 z"
           clip-path="url(#pdbe3fd16af)"
           style="fill:#2c6fb0;fill-opacity:0.78"
           id="path64" />
        <path
           d="m 121.66894,133.14996 c 0.51356,0 1.00616,-0.20404 1.3693,-0.56718 0.36315,-0.36315 0.56719,-0.85575 0.56719,-1.36931 0,-0.51356 -0.20404,-1.00616 -0.56719,-1.36931 -0.36314,-0.36314 -0.85574,-0.56718 -1.3693,-0.56718 -0.51357,0 -1.00617,0.20404 -1.36931,0.56718 -0.36315,0.36315 -0.56719,0.85575 -0.56719,1.36931 0,0.51356 0.20404,1.00616 0.56719,1.36931 0.36314,0.36314 0.85574,0.56718 1.36931,0.56718 z"
           clip-path="url(#pdbe3fd16af)"
           style="fill:#2c6fb0;fill-opacity:0.78"
           id="path65" />
        <path
           d="m 147.36802,132.9477 c 0.51357,0 1.00617,-0.20404 1.36931,-0.56719 0.36315,-0.36314 0.56719,-0.85574 0.56719,-1.3693 0,-0.51357 -0.20404,-1.00616 -0.56719,-1.36931 -0.36314,-0.36314 -0.85574,-0.56718 -1.36931,-0.56718 -0.51356,0 -1.00616,0.20404 -1.3693,0.56718 -0.36315,0.36315 -0.56719,0.85574 -0.56719,1.36931 0,0.51356 0.20404,1.00616 0.56719,1.3693 0.36314,0.36315 0.85574,0.56719 1.3693,0.56719 z"
           clip-path="url(#pdbe3fd16af)"
           style="fill:#2c6fb0;fill-opacity:0.78"
           id="path66" />
        <path
           d="m 190.10965,133.13551 c 0.51356,0 1.00616,-0.20404 1.3693,-0.56718 0.36315,-0.36315 0.56719,-0.85574 0.56719,-1.36931 0,-0.51356 -0.20404,-1.00616 -0.56719,-1.3693 -0.36314,-0.36315 -0.85574,-0.56719 -1.3693,-0.56719 -0.51357,0 -1.00617,0.20404 -1.36931,0.56719 -0.36314,0.36314 -0.56719,0.85574 -0.56719,1.3693 0,0.51357 0.20405,1.00616 0.56719,1.36931 0.36314,0.36314 0.85574,0.56718 1.36931,0.56718 z"
           clip-path="url(#pdbe3fd16af)"
           style="fill:#2c6fb0;fill-opacity:0.78"
           id="path67" />
        <path
           d="m 224.62758,133.12107 c 0.51357,0 1.00617,-0.20404 1.36931,-0.56719 0.36314,-0.36314 0.56719,-0.85574 0.56719,-1.3693 0,-0.51357 -0.20405,-1.00617 -0.56719,-1.36931 -0.36314,-0.36315 -0.85574,-0.56719 -1.36931,-0.56719 -0.51356,0 -1.00616,0.20404 -1.3693,0.56719 -0.36315,0.36314 -0.56719,0.85574 -0.56719,1.36931 0,0.51356 0.20404,1.00616 0.56719,1.3693 0.36314,0.36315 0.85574,0.56719 1.3693,0.56719 z"
           clip-path="url(#pdbe3fd16af)"
           style="fill:#2c6fb0;fill-opacity:0.78"
           id="path68" />
        <path
           d="m 62.057791,54.586017 c 0.513564,0 1.006162,-0.204041 1.369307,-0.567185 0.363144,-0.363145 0.567185,-0.855743 0.567185,-1.369307 0,-0.513563 -0.204041,-1.006162 -0.567185,-1.369306 -0.363145,-0.363145 -0.855743,-0.567186 -1.369307,-0.567186 -0.513563,0 -1.006162,0.204041 -1.369306,0.567186 -0.363145,0.363144 -0.567185,0.855743 -0.567185,1.369306 0,0.513564 0.20404,1.006162 0.567185,1.369307 0.363144,0.363144 0.855743,0.567185 1.369306,0.567185 z"
           clip-path="url(#pdbe3fd16af)"
           style="fill:#2c6fb0;fill-opacity:0.78"
           id="path69" />
        <path
           d="m 109.3865,54.961644 c 0.51357,0 1.00617,-0.204041 1.36931,-0.567185 0.36315,-0.363144 0.56719,-0.855743 0.56719,-1.369306 0,-0.513564 -0.20404,-1.006162 -0.56719,-1.369307 -0.36314,-0.363144 -0.85574,-0.567185 -1.36931,-0.567185 -0.51356,0 -1.00616,0.204041 -1.3693,0.567185 -0.36315,0.363145 -0.56719,0.855743 -0.56719,1.369307 0,0.513563 0.20404,1.006162 0.56719,1.369306 0.36314,0.363144 0.85574,0.567185 1.3693,0.567185 z"
           clip-path="url(#pdbe3fd16af)"
           style="fill:#2c6fb0;fill-opacity:0.78"
           id="path70" />
        <path
           d="m 157.77117,69.957852 c 0.51356,0 1.00616,-0.204041 1.36931,-0.567186 0.36314,-0.363144 0.56718,-0.855743 0.56718,-1.369306 0,-0.513564 -0.20404,-1.006162 -0.56718,-1.369307 -0.36315,-0.363144 -0.85575,-0.567185 -1.36931,-0.567185 -0.51356,0 -1.00616,0.204041 -1.36931,0.567185 -0.36314,0.363145 -0.56718,0.855743 -0.56718,1.369307 0,0.513563 0.20404,1.006162 0.56718,1.369306 0.36315,0.363145 0.85575,0.567186 1.36931,0.567186 z"
           clip-path="url(#pdbe3fd16af)"
           style="fill:#2c6fb0;fill-opacity:0.78"
           id="path71" />
        <path
           d="m 223.90543,55.135011 c 0.51356,0 1.00616,-0.204041 1.3693,-0.567185 0.36315,-0.363145 0.56719,-0.855743 0.56719,-1.369307 0,-0.513563 -0.20404,-1.006162 -0.56719,-1.369306 -0.36314,-0.363144 -0.85574,-0.567185 -1.3693,-0.567185 -0.51357,0 -1.00617,0.204041 -1.36931,0.567185 -0.36315,0.363144 -0.56719,0.855743 -0.56719,1.369306 0,0.513564 0.20404,1.006162 0.56719,1.369307 0.36314,0.363144 0.85574,0.567185 1.36931,0.567185 z"
           clip-path="url(#pdbe3fd16af)"
           style="fill:#2c6fb0;fill-opacity:0.78"
           id="path72" />
        <path
           d="m 69.627683,106.19146 c 0.513564,0 1.006162,-0.20404 1.369306,-0.56718 0.363145,-0.36315 0.567186,-0.85575 0.567186,-1.36931 0,-0.51356 -0.204041,-1.00616 -0.567186,-1.36931 -0.363144,-0.36314 -0.855742,-0.56718 -1.369306,-0.56718 -0.513564,0 -1.006162,0.20404 -1.369306,0.56718 -0.363145,0.36315 -0.567186,0.85575 -0.567186,1.36931 0,0.51356 0.204041,1.00616 0.567186,1.36931 0.363144,0.36314 0.855742,0.56718 1.369306,0.56718 z"
           clip-path="url(#pdbe3fd16af)"
           style="fill:#2c6fb0;fill-opacity:0.78"
           id="path73" />
        <path
           d="m 112.16749,106.39372 c 0.51356,0 1.00616,-0.20404 1.36931,-0.56718 0.36314,-0.36315 0.56718,-0.85575 0.56718,-1.36931 0,-0.51356 -0.20404,-1.00616 -0.56718,-1.3693 -0.36315,-0.36315 -0.85575,-0.56719 -1.36931,-0.56719 -0.51356,0 -1.00616,0.20404 -1.36931,0.56719 -0.36314,0.36314 -0.56718,0.85574 -0.56718,1.3693 0,0.51356 0.20404,1.00616 0.56718,1.36931 0.36315,0.36314 0.85575,0.56718 1.36931,0.56718 z"
           clip-path="url(#pdbe3fd16af)"
           style="fill:#2c6fb0;fill-opacity:0.78"
           id="path74" />
        <path
           d="m 147.2682,107.40503 c 0.51357,0 1.00616,-0.20404 1.36931,-0.56719 0.36314,-0.36314 0.56718,-0.85574 0.56718,-1.3693 0,-0.51357 -0.20404,-1.00617 -0.56718,-1.36931 -0.36315,-0.36314 -0.85574,-0.56719 -1.36931,-0.56719 -0.51356,0 -1.00616,0.20405 -1.3693,0.56719 -0.36315,0.36314 -0.56719,0.85574 -0.56719,1.36931 0,0.51356 0.20404,1.00616 0.56719,1.3693 0.36314,0.36315 0.85574,0.56719 1.3693,0.56719 z"
           clip-path="url(#pdbe3fd16af)"
           style="fill:#2c6fb0;fill-opacity:0.78"
           id="path75" />
        <path
           d="m 188.41169,106.27814 c 0.51356,0 1.00616,-0.20404 1.36931,-0.56718 0.36314,-0.36314 0.56718,-0.85574 0.56718,-1.36931 0,-0.51356 -0.20404,-1.00616 -0.56718,-1.3693 -0.36315,-0.36315 -0.85575,-0.56719 -1.36931,-0.56719 -0.51356,0 -1.00616,0.20404 -1.36931,0.56719 -0.36314,0.36314 -0.56718,0.85574 -0.56718,1.3693 0,0.51357 0.20404,1.00617 0.56718,1.36931 0.36315,0.36314 0.85575,0.56718 1.36931,0.56718 z"
           clip-path="url(#pdbe3fd16af)"
           style="fill:#2c6fb0;fill-opacity:0.78"
           id="path76" />
        <path
           d="m 235.52075,107.18832 c 0.51356,0 1.00616,-0.20404 1.36931,-0.56719 0.36314,-0.36314 0.56718,-0.85574 0.56718,-1.3693 0,-0.51357 -0.20404,-1.00616 -0.56718,-1.36931 -0.36315,-0.36314 -0.85575,-0.56718 -1.36931,-0.56718 -0.51356,0 -1.00616,0.20404 -1.36931,0.56718 -0.36314,0.36315 -0.56718,0.85574 -0.56718,1.36931 0,0.51356 0.20404,1.00616 0.56718,1.3693 0.36315,0.36315 0.85575,0.56719 1.36931,0.56719 z"
           clip-path="url(#pdbe3fd16af)"
           style="fill:#2c6fb0;fill-opacity:0.78"
           id="path77" />
        <path
           d="m 65.758776,83.061474 c 0.513564,0 1.006162,-0.204041 1.369307,-0.567185 0.363144,-0.363145 0.567185,-0.855743 0.567185,-1.369307 0,-0.513563 -0.204041,-1.006162 -0.567185,-1.369306 -0.363145,-0.363145 -0.855743,-0.567186 -1.369307,-0.567186 -0.513563,0 -1.006162,0.204041 -1.369306,0.567186 -0.363144,0.363144 -0.567185,0.855743 -0.567185,1.369306 0,0.513564 0.204041,1.006162 0.567185,1.369307 0.363144,0.363144 0.855743,0.567185 1.369306,0.567185 z"
           clip-path="url(#pdbe3fd16af)"
           style="fill:#2c6fb0;fill-opacity:0.78"
           id="path78" />
        <path
           d="m 122.44884,83.942754 c 0.51356,0 1.00616,-0.204041 1.3693,-0.567185 0.36315,-0.363145 0.56719,-0.855743 0.56719,-1.369307 0,-0.513563 -0.20404,-1.006162 -0.56719,-1.369306 -0.36314,-0.363145 -0.85574,-0.567186 -1.3693,-0.567186 -0.51357,0 -1.00617,0.204041 -1.36931,0.567186 -0.36314,0.363144 -0.56719,0.855743 -0.56719,1.369306 0,0.513564 0.20405,1.006162 0.56719,1.369307 0.36314,0.363144 0.85574,0.567185 1.36931,0.567185 z"
           clip-path="url(#pdbe3fd16af)"
           style="fill:#2c6fb0;fill-opacity:0.78"
           id="path79" />
        <path
           d="m 160.75869,83.624915 c 0.51356,0 1.00616,-0.204041 1.36931,-0.567185 0.36314,-0.363144 0.56718,-0.855743 0.56718,-1.369307 0,-0.513563 -0.20404,-1.006162 -0.56718,-1.369306 -0.36315,-0.363144 -0.85575,-0.567185 -1.36931,-0.567185 -0.51356,0 -1.00616,0.204041 -1.36931,0.567185 -0.36314,0.363144 -0.56718,0.855743 -0.56718,1.369306 0,0.513564 0.20404,1.006163 0.56718,1.369307 0.36315,0.363144 0.85575,0.567185 1.36931,0.567185 z"
           clip-path="url(#pdbe3fd16af)"
           style="fill:#2c6fb0;fill-opacity:0.78"
           id="path80" />
        <path
           d="m 227.21258,83.986095 c 0.51357,0 1.00617,-0.20404 1.36931,-0.567185 0.36314,-0.363144 0.56719,-0.855743 0.56719,-1.369306 0,-0.513564 -0.20405,-1.006162 -0.56719,-1.369307 -0.36314,-0.363144 -0.85574,-0.567185 -1.36931,-0.567185 -0.51356,0 -1.00616,0.204041 -1.3693,0.567185 -0.36315,0.363145 -0.56719,0.855743 -0.56719,1.369307 0,0.513563 0.20404,1.006162 0.56719,1.369306 0.36314,0.363145 0.85574,0.567185 1.3693,0.567185 z"
           clip-path="url(#pdbe3fd16af)"
           style="fill:#2c6fb0;fill-opacity:0.78"
           id="path81" />
        <path
           d="m 73.59877,77.311483 c 0.513564,0 1.006163,-0.204041 1.369307,-0.567185 0.363144,-0.363145 0.567185,-0.855743 0.567185,-1.369307 0,-0.513563 -0.204041,-1.006162 -0.567185,-1.369306 C 74.604933,73.642541 74.112334,73.4385 73.59877,73.4385 c -0.513563,0 -1.006162,0.204041 -1.369306,0.567185 -0.363144,0.363144 -0.567185,0.855743 -0.567185,1.369306 0,0.513564 0.204041,1.006162 0.567185,1.369307 0.363144,0.363144 0.855743,0.567185 1.369306,0.567185 z"
           clip-path="url(#pdbe3fd16af)"
           style="fill:#2c6fb0;fill-opacity:0.78"
           id="path82" />
        <path
           d="m 117.00162,76.386861 c 0.51356,0 1.00616,-0.204041 1.3693,-0.567185 0.36315,-0.363144 0.56719,-0.855743 0.56719,-1.369306 0,-0.513564 -0.20404,-1.006162 -0.56719,-1.369307 -0.36314,-0.363144 -0.85574,-0.567185 -1.3693,-0.567185 -0.51357,0 -1.00617,0.204041 -1.36931,0.567185 -0.36314,0.363145 -0.56719,0.855743 -0.56719,1.369307 0,0.513563 0.20405,1.006162 0.56719,1.369306 0.36314,0.363144 0.85574,0.567185 1.36931,0.567185 z"
           clip-path="url(#pdbe3fd16af)"
           style="fill:#2c6fb0;fill-opacity:0.78"
           id="path83" />
        <path
           d="m 157.44859,77.470402 c 0.51356,0 1.00616,-0.204041 1.36931,-0.567185 0.36314,-0.363144 0.56718,-0.855743 0.56718,-1.369306 0,-0.513564 -0.20404,-1.006162 -0.56718,-1.369307 -0.36315,-0.363144 -0.85575,-0.567185 -1.36931,-0.567185 -0.51356,0 -1.00616,0.204041 -1.36931,0.567185 -0.36314,0.363145 -0.56718,0.855743 -0.56718,1.369307 0,0.513563 0.20404,1.006162 0.56718,1.369306 0.36315,0.363144 0.85575,0.567185 1.36931,0.567185 z"
           clip-path="url(#pdbe3fd16af)"
           style="fill:#2c6fb0;fill-opacity:0.78"
           id="path84" />
        <path
           d="m 184.08149,76.44465 c 0.51356,0 1.00616,-0.204041 1.3693,-0.567185 0.36315,-0.363144 0.56719,-0.855743 0.56719,-1.369306 0,-0.513564 -0.20404,-1.006163 -0.56719,-1.369307 -0.36314,-0.363144 -0.85574,-0.567185 -1.3693,-0.567185 -0.51357,0 -1.00617,0.204041 -1.36931,0.567185 -0.36314,0.363144 -0.56719,0.855743 -0.56719,1.369307 0,0.513563 0.20405,1.006162 0.56719,1.369306 0.36314,0.363144 0.85574,0.567185 1.36931,0.567185 z"
           clip-path="url(#pdbe3fd16af)"
           style="fill:#2c6fb0;fill-opacity:0.78"
           id="path85" />
        <path
           d="m 238.86414,76.487992 c 0.51357,0 1.00616,-0.204041 1.36931,-0.567185 0.36314,-0.363145 0.56718,-0.855743 0.56718,-1.369307 0,-0.513563 -0.20404,-1.006162 -0.56718,-1.369306 -0.36315,-0.363144 -0.85574,-0.567185 -1.36931,-0.567185 -0.51356,0 -1.00616,0.204041 -1.3693,0.567185 -0.36315,0.363144 -0.56719,0.855743 -0.56719,1.369306 0,0.513564 0.20404,1.006162 0.56719,1.369307 0.36314,0.363144 0.85574,0.567185 1.3693,0.567185 z"
           clip-path="url(#pdbe3fd16af)"
           style="fill:#2c6fb0;fill-opacity:0.78"
           id="path86" />
        <path
           d="m 82.760985,54.759383 c 0.513564,0 1.006162,-0.204041 1.369307,-0.567185 0.363144,-0.363144 0.567185,-0.855743 0.567185,-1.369306 0,-0.513564 -0.204041,-1.006162 -0.567185,-1.369307 -0.363145,-0.363144 -0.855743,-0.567185 -1.369307,-0.567185 -0.513563,0 -1.006162,0.204041 -1.369306,0.567185 -0.363144,0.363145 -0.567185,0.855743 -0.567185,1.369307 0,0.513563 0.204041,1.006162 0.567185,1.369306 0.363144,0.363144 0.855743,0.567185 1.369306,0.567185 z"
           clip-path="url(#pdbe3fd16af)"
           style="fill:#2c6fb0;fill-opacity:0.78"
           id="path87" />
        <path
           d="m 114.4211,55.467297 c 0.51356,0 1.00616,-0.204041 1.36931,-0.567185 0.36314,-0.363145 0.56718,-0.855743 0.56718,-1.369307 0,-0.513563 -0.20404,-1.006162 -0.56718,-1.369306 -0.36315,-0.363145 -0.85575,-0.567186 -1.36931,-0.567186 -0.51356,0 -1.00616,0.204041 -1.36931,0.567186 -0.36314,0.363144 -0.56718,0.855743 -0.56718,1.369306 0,0.513564 0.20404,1.006162 0.56718,1.369307 0.36315,0.363144 0.85575,0.567185 1.36931,0.567185 z"
           clip-path="url(#pdbe3fd16af)"
           style="fill:#2c6fb0;fill-opacity:0.78"
           id="path88" />
        <path
           d="m 161.65081,54.542675 c 0.51356,0 1.00616,-0.204041 1.36931,-0.567185 0.36314,-0.363144 0.56718,-0.855743 0.56718,-1.369307 0,-0.513563 -0.20404,-1.006162 -0.56718,-1.369306 -0.36315,-0.363144 -0.85575,-0.567185 -1.36931,-0.567185 -0.51356,0 -1.00616,0.204041 -1.36931,0.567185 -0.36314,0.363144 -0.56718,0.855743 -0.56718,1.369306 0,0.513564 0.20404,1.006163 0.56718,1.369307 0.36315,0.363144 0.85575,0.567185 1.36931,0.567185 z"
           clip-path="url(#pdbe3fd16af)"
           style="fill:#2c6fb0;fill-opacity:0.78"
           id="path89" />
        <path
           d="m 244.75363,55.568427 c 0.51357,0 1.00617,-0.204041 1.36931,-0.567185 0.36315,-0.363144 0.56719,-0.855743 0.56719,-1.369306 0,-0.513564 -0.20404,-1.006162 -0.56719,-1.369307 -0.36314,-0.363144 -0.85574,-0.567185 -1.36931,-0.567185 -0.51356,0 -1.00616,0.204041 -1.3693,0.567185 -0.36315,0.363145 -0.56719,0.855743 -0.56719,1.369307 0,0.513563 0.20404,1.006162 0.56719,1.369306 0.36314,0.363144 0.85574,0.567185 1.3693,0.567185 z"
           clip-path="url(#pdbe3fd16af)"
           style="fill:#2c6fb0;fill-opacity:0.78"
           id="path90" />
        <path
           d="m 70.741389,171.52176 c 0.513563,0 1.006162,-0.20404 1.369306,-0.56719 0.363144,-0.36314 0.567185,-0.85574 0.567185,-1.3693 0,-0.51357 -0.204041,-1.00616 -0.567185,-1.36931 -0.363144,-0.36314 -0.855743,-0.56718 -1.369306,-0.56718 -0.513564,0 -1.006162,0.20404 -1.369307,0.56718 -0.363144,0.36315 -0.567185,0.85574 -0.567185,1.36931 0,0.51356 0.204041,1.00616 0.567185,1.3693 0.363145,0.36315 0.855743,0.56719 1.369307,0.56719 z"
           clip-path="url(#pdbe3fd16af)"
           style="fill:#2c6fb0;fill-opacity:0.78"
           id="path91" />
        <path
           d="m 119.50249,172.3597 c 0.51357,0 1.00617,-0.20404 1.36931,-0.56719 0.36315,-0.36314 0.56719,-0.85574 0.56719,-1.3693 0,-0.51357 -0.20404,-1.00617 -0.56719,-1.36931 -0.36314,-0.36314 -0.85574,-0.56719 -1.36931,-0.56719 -0.51356,0 -1.00616,0.20405 -1.3693,0.56719 -0.36315,0.36314 -0.56719,0.85574 -0.56719,1.36931 0,0.51356 0.20404,1.00616 0.56719,1.3693 0.36314,0.36315 0.85574,0.56719 1.3693,0.56719 z"
           clip-path="url(#pdbe3fd16af)"
           style="fill:#2c6fb0;fill-opacity:0.78"
           id="path92" />
        <path
           d="m 159.43487,171.78181 c 0.51356,0 1.00616,-0.20404 1.3693,-0.56719 0.36315,-0.36314 0.56719,-0.85574 0.56719,-1.3693 0,-0.51357 -0.20404,-1.00616 -0.56719,-1.36931 -0.36314,-0.36314 -0.85574,-0.56718 -1.3693,-0.56718 -0.51357,0 -1.00617,0.20404 -1.36931,0.56718 -0.36314,0.36315 -0.56719,0.85574 -0.56719,1.36931 0,0.51356 0.20405,1.00616 0.56719,1.3693 0.36314,0.36315 0.85574,0.56719 1.36931,0.56719 z"
           clip-path="url(#pdbe3fd16af)"
           style="fill:#2c6fb0;fill-opacity:0.78"
           id="path93" />
        <path
           d="m 199.0053,172.02741 c 0.51356,0 1.00616,-0.20404 1.3693,-0.56718 0.36315,-0.36315 0.56719,-0.85575 0.56719,-1.36931 0,-0.51356 -0.20404,-1.00616 -0.56719,-1.36931 -0.36314,-0.36314 -0.85574,-0.56718 -1.3693,-0.56718 -0.51357,0 -1.00617,0.20404 -1.36931,0.56718 -0.36315,0.36315 -0.56719,0.85575 -0.56719,1.36931 0,0.51356 0.20404,1.00616 0.56719,1.36931 0.36314,0.36314 0.85574,0.56718 1.36931,0.56718 z"
           clip-path="url(#pdbe3fd16af)"
           style="fill:#2c6fb0;fill-opacity:0.78"
           id="path94" />
        <path
           d="m 222.628,171.94073 c 0.51357,0 1.00617,-0.20404 1.36931,-0.56719 0.36314,-0.36314 0.56719,-0.85574 0.56719,-1.3693 0,-0.51357 -0.20405,-1.00617 -0.56719,-1.36931 -0.36314,-0.36314 -0.85574,-0.56718 -1.36931,-0.56718 -0.51356,0 -1.00616,0.20404 -1.3693,0.56718 -0.36315,0.36314 -0.56719,0.85574 -0.56719,1.36931 0,0.51356 0.20404,1.00616 0.56719,1.3693 0.36314,0.36315 0.85574,0.56719 1.3693,0.56719 z"
           clip-path="url(#pdbe3fd16af)"
           style="fill:#2c6fb0;fill-opacity:0.78"
           id="path95" />
        <path
           d="m 82.661688,61.939648 c 0.513563,0 1.006162,-0.204041 1.369306,-0.567185 0.363144,-0.363144 0.567185,-0.855743 0.567185,-1.369306 0,-0.513564 -0.204041,-1.006162 -0.567185,-1.369307 -0.363144,-0.363144 -0.855743,-0.567185 -1.369306,-0.567185 -0.513564,0 -1.006162,0.204041 -1.369307,0.567185 -0.363144,0.363145 -0.567185,0.855743 -0.567185,1.369307 0,0.513563 0.204041,1.006162 0.567185,1.369306 0.363145,0.363144 0.855743,0.567185 1.369307,0.567185 z"
           clip-path="url(#pdbe3fd16af)"
           style="fill:#2c6fb0;fill-opacity:0.78"
           id="path96" />
        <path
           d="m 114.80022,62.86427 c 0.51356,0 1.00616,-0.204041 1.3693,-0.567185 0.36315,-0.363145 0.56719,-0.855743 0.56719,-1.369307 0,-0.513563 -0.20404,-1.006162 -0.56719,-1.369306 -0.36314,-0.363144 -0.85574,-0.567185 -1.3693,-0.567185 -0.51357,0 -1.00616,0.204041 -1.36931,0.567185 -0.36314,0.363144 -0.56718,0.855743 -0.56718,1.369306 0,0.513564 0.20404,1.006162 0.56718,1.369307 0.36315,0.363144 0.85574,0.567185 1.36931,0.567185 z"
           clip-path="url(#pdbe3fd16af)"
           style="fill:#2c6fb0;fill-opacity:0.78"
           id="path97" />
        <path
           d="m 146.70285,61.939648 c 0.51356,0 1.00616,-0.204041 1.3693,-0.567185 0.36315,-0.363144 0.56719,-0.855743 0.56719,-1.369306 0,-0.513564 -0.20404,-1.006162 -0.56719,-1.369307 -0.36314,-0.363144 -0.85574,-0.567185 -1.3693,-0.567185 -0.51357,0 -1.00617,0.204041 -1.36931,0.567185 -0.36314,0.363145 -0.56719,0.855743 -0.56719,1.369307 0,0.513563 0.20405,1.006162 0.56719,1.369306 0.36314,0.363144 0.85574,0.567185 1.36931,0.567185 z"
           clip-path="url(#pdbe3fd16af)"
           style="fill:#2c6fb0;fill-opacity:0.78"
           id="path98" />
        <path
           d="m 244.21211,62.633115 c 0.51356,0 1.00616,-0.204041 1.3693,-0.567186 0.36315,-0.363144 0.56719,-0.855743 0.56719,-1.369306 0,-0.513564 -0.20404,-1.006162 -0.56719,-1.369307 -0.36314,-0.363144 -0.85574,-0.567185 -1.3693,-0.567185 -0.51357,0 -1.00616,0.204041 -1.36931,0.567185 -0.36314,0.363145 -0.56718,0.855743 -0.56718,1.369307 0,0.513563 0.20404,1.006162 0.56718,1.369306 0.36315,0.363145 0.85574,0.567186 1.36931,0.567186 z"
           clip-path="url(#pdbe3fd16af)"
           style="fill:#2c6fb0;fill-opacity:0.78"
           id="path99" />
        <path
           d="m 61.839764,74.826562 c 0.513564,0 1.006162,-0.204041 1.369307,-0.567185 0.363144,-0.363144 0.567185,-0.855743 0.567185,-1.369306 0,-0.513564 -0.204041,-1.006162 -0.567185,-1.369307 -0.363145,-0.363144 -0.855743,-0.567185 -1.369307,-0.567185 -0.513563,0 -1.006162,0.204041 -1.369306,0.567185 -0.363144,0.363145 -0.567185,0.855743 -0.567185,1.369307 0,0.513563 0.204041,1.006162 0.567185,1.369306 0.363144,0.363144 0.855743,0.567185 1.369306,0.567185 z"
           clip-path="url(#pdbe3fd16af)"
           style="fill:#2c6fb0;fill-opacity:0.78"
           id="path100" />
        <path
           d="m 110.64482,75.390004 c 0.51356,0 1.00616,-0.204041 1.3693,-0.567186 0.36315,-0.363144 0.56719,-0.855742 0.56719,-1.369306 0,-0.513564 -0.20404,-1.006162 -0.56719,-1.369306 -0.36314,-0.363145 -0.85574,-0.567186 -1.3693,-0.567186 -0.51357,0 -1.00617,0.204041 -1.36931,0.567186 -0.36315,0.363144 -0.56719,0.855742 -0.56719,1.369306 0,0.513564 0.20404,1.006162 0.56719,1.369306 0.36314,0.363145 0.85574,0.567186 1.36931,0.567186 z"
           clip-path="url(#pdbe3fd16af)"
           style="fill:#2c6fb0;fill-opacity:0.78"
           id="path101" />
        <path
           d="m 149.71286,75.288873 c 0.51356,0 1.00616,-0.204041 1.36931,-0.567185 0.36314,-0.363144 0.56718,-0.855743 0.56718,-1.369306 0,-0.513564 -0.20404,-1.006163 -0.56718,-1.369307 -0.36315,-0.363144 -0.85575,-0.567185 -1.36931,-0.567185 -0.51356,0 -1.00616,0.204041 -1.36931,0.567185 -0.36314,0.363144 -0.56718,0.855743 -0.56718,1.369307 0,0.513563 0.20404,1.006162 0.56718,1.369306 0.36315,0.363144 0.85575,0.567185 1.36931,0.567185 z"
           clip-path="url(#pdbe3fd16af)"
           style="fill:#2c6fb0;fill-opacity:0.78"
           id="path102" />
        <path
           d="m 189.59392,75.086612 c 0.51356,0 1.00616,-0.204041 1.3693,-0.567185 0.36315,-0.363144 0.56719,-0.855743 0.56719,-1.369306 0,-0.513564 -0.20404,-1.006163 -0.56719,-1.369307 -0.36314,-0.363144 -0.85574,-0.567185 -1.3693,-0.567185 -0.51357,0 -1.00617,0.204041 -1.36931,0.567185 -0.36314,0.363144 -0.56719,0.855743 -0.56719,1.369307 0,0.513563 0.20405,1.006162 0.56719,1.369306 0.36314,0.363144 0.85574,0.567185 1.36931,0.567185 z"
           clip-path="url(#pdbe3fd16af)"
           style="fill:#2c6fb0;fill-opacity:0.78"
           id="path103" />
        <path
           d="m 225.94124,75.028823 c 0.51356,0 1.00616,-0.204041 1.3693,-0.567185 0.36315,-0.363144 0.56719,-0.855743 0.56719,-1.369306 0,-0.513564 -0.20404,-1.006162 -0.56719,-1.369307 -0.36314,-0.363144 -0.85574,-0.567185 -1.3693,-0.567185 -0.51357,0 -1.00617,0.204041 -1.36931,0.567185 -0.36314,0.363145 -0.56718,0.855743 -0.56718,1.369307 0,0.513563 0.20404,1.006162 0.56718,1.369306 0.36314,0.363144 0.85574,0.567185 1.36931,0.567185 z"
           clip-path="url(#pdbe3fd16af)"
           style="fill:#2c6fb0;fill-opacity:0.78"
           id="path104" />
        <path
           d="m 64.376879,60.610505 c 0.513564,0 1.006162,-0.204041 1.369307,-0.567186 0.363144,-0.363144 0.567185,-0.855742 0.567185,-1.369306 0,-0.513564 -0.204041,-1.006162 -0.567185,-1.369306 -0.363145,-0.363145 -0.855743,-0.567186 -1.369307,-0.567186 -0.513563,0 -1.006162,0.204041 -1.369306,0.567186 -0.363144,0.363144 -0.567185,0.855742 -0.567185,1.369306 0,0.513564 0.204041,1.006162 0.567185,1.369306 0.363144,0.363145 0.855743,0.567186 1.369306,0.567186 z"
           clip-path="url(#pdbe3fd16af)"
           style="fill:#2c6fb0;fill-opacity:0.78"
           id="path105" />
        <path
           d="m 124.11019,61.433996 c 0.51356,0 1.00616,-0.204041 1.36931,-0.567185 0.36314,-0.363145 0.56718,-0.855743 0.56718,-1.369307 0,-0.513563 -0.20404,-1.006162 -0.56718,-1.369306 -0.36315,-0.363145 -0.85575,-0.567186 -1.36931,-0.567186 -0.51356,0 -1.00616,0.204041 -1.36931,0.567186 -0.36314,0.363144 -0.56718,0.855743 -0.56718,1.369306 0,0.513564 0.20404,1.006162 0.56718,1.369307 0.36315,0.363144 0.85575,0.567185 1.36931,0.567185 z"
           clip-path="url(#pdbe3fd16af)"
           style="fill:#2c6fb0;fill-opacity:0.78"
           id="path106" />
        <path
           d="m 152.26841,60.971685 c 0.51357,0 1.00617,-0.204041 1.36931,-0.567185 0.36314,-0.363145 0.56718,-0.855743 0.56718,-1.369307 0,-0.513563 -0.20404,-1.006162 -0.56718,-1.369306 -0.36314,-0.363144 -0.85574,-0.567185 -1.36931,-0.567185 -0.51356,0 -1.00616,0.204041 -1.3693,0.567185 -0.36315,0.363144 -0.56719,0.855743 -0.56719,1.369306 0,0.513564 0.20404,1.006162 0.56719,1.369307 0.36314,0.363144 0.85574,0.567185 1.3693,0.567185 z"
           clip-path="url(#pdbe3fd16af)"
           style="fill:#2c6fb0;fill-opacity:0.78"
           id="path107" />
        <path
           d="m 222.25947,61.36176 c 0.51356,0 1.00616,-0.204041 1.3693,-0.567186 0.36315,-0.363144 0.56719,-0.855742 0.56719,-1.369306 0,-0.513564 -0.20404,-1.006162 -0.56719,-1.369306 -0.36314,-0.363145 -0.85574,-0.567186 -1.3693,-0.567186 -0.51357,0 -1.00616,0.204041 -1.36931,0.567186 -0.36314,0.363144 -0.56718,0.855742 -0.56718,1.369306 0,0.513564 0.20404,1.006162 0.56718,1.369306 0.36315,0.363145 0.85574,0.567186 1.36931,0.567186 z"
           clip-path="url(#pdbe3fd16af)"
           style="fill:#2c6fb0;fill-opacity:0.78"
           id="path108" />
      </g>
      <g
         id="text_13">
        <g
           id="patch_7">
          <path
             d="M 87.818242,14.493688 H 219.12777 q 2.22,0 2.22,-2.22 V -3.415757 q 0,-2.22 -2.22,-2.22 H 87.818242 q -2.22,0 -2.22,2.22 v 15.689445 q 0,2.22 2.22,2.22 z"
             style="fill:#ecf0f1;stroke:#95a5a6;stroke-width:0.6;stroke-linejoin:miter"
             id="path109" />
        </g>
        <text
           style="font-size:7.4px;font-family:'Times New Roman', 'DejaVu Serif', serif"
           id="text109"
           x="87.818245"
           y="2.277256">4 / 90 configurations beat the linear baseline</text>
        <text
           style="font-size:7.4px;font-family:'Times New Roman', 'DejaVu Serif', serif"
           id="text110"
           x="106.30495"
           y="10.121979">86 / 90 not significant · 0 worse</text>
      </g>
      <g
         id="patch_8" />
      <g
         id="text_14">
        <text
           style="font-size:7px;font-family:'Times New Roman', 'DejaVu Serif', serif;fill:#27ae60"
           id="text111"
           x="157.20686"
           y="25.765322">4 above 0</text>
        <text
           style="font-size:7px;font-family:'Times New Roman', 'DejaVu Serif', serif;fill:#27ae60"
           id="text112"
           x="157.20686"
           y="33.186005">(CI excludes 0)</text>
      </g>
      <g
         id="text_15">
        <text
           style="font-size:9.5px;font-family:'Times New Roman', 'DejaVu Serif', serif;text-anchor:start"
           x="49.793007"
           y="-14.367199"
           id="text113">A. Graph vs linear, 90 configurations</text>
      </g>
      <g
         id="LineCollection_1">
        <path
           d="M 74.572709,53.718619 V 23.263894"
           clip-path="url(#pdbe3fd16af)"
           style="fill:none;stroke:#27ae60;stroke-width:1.1"
           id="path113" />
      </g>
      <g
         id="line2d_13">
        <defs
           id="defs113">
          <path
             id="mf8311fad42"
             d="m 2.5,0 h -5"
             style="stroke:#27ae60" />
        </defs>
        <g
           clip-path="url(#pdbe3fd16af)"
           id="g113">
          <use
             xlink:href="#mf8311fad42"
             x="74.572708"
             y="53.71862"
             style="fill:#1f77b4;stroke:#27ae60"
             id="use113" />
        </g>
      </g>
      <g
         id="line2d_14">
        <g
           clip-path="url(#pdbe3fd16af)"
           id="g114">
          <use
             xlink:href="#mf8311fad42"
             x="74.572708"
             y="23.263893"
             style="fill:#1f77b4;stroke:#27ae60"
             id="use114" />
        </g>
      </g>
      <g
         id="LineCollection_2">
        <path
           d="M 123.53969,54.80216 V 24.05849"
           clip-path="url(#pdbe3fd16af)"
           style="fill:none;stroke:#27ae60;stroke-width:1.1"
           id="path114" />
      </g>
      <g
         id="line2d_15">
        <g
           clip-path="url(#pdbe3fd16af)"
           id="g115">
          <use
             xlink:href="#mf8311fad42"
             x="123.53969"
             y="54.802158"
             style="fill:#1f77b4;stroke:#27ae60"
             id="use115" />
        </g>
      </g>
      <g
         id="line2d_16">
        <g
           clip-path="url(#pdbe3fd16af)"
           id="g116">
          <use
             xlink:href="#mf8311fad42"
             x="123.53969"
             y="24.058491"
             style="fill:#1f77b4;stroke:#27ae60"
             id="use116" />
        </g>
      </g>
      <g
         id="LineCollection_3">
        <path
           d="M 146.81169,53.906433 V 23.552838"
           clip-path="url(#pdbe3fd16af)"
           style="fill:none;stroke:#27ae60;stroke-width:1.1"
           id="path116" />
      </g>
      <g
         id="line2d_17">
        <g
           clip-path="url(#pdbe3fd16af)"
           id="g117">
          <use
             xlink:href="#mf8311fad42"
             x="146.81169"
             y="53.906433"
             style="fill:#1f77b4;stroke:#27ae60"
             id="use117" />
        </g>
      </g>
      <g
         id="line2d_18">
        <g
           clip-path="url(#pdbe3fd16af)"
           id="g118">
          <use
             xlink:href="#mf8311fad42"
             x="146.81169"
             y="23.552837"
             style="fill:#1f77b4;stroke:#27ae60"
             id="use118" />
        </g>
      </g>
      <g
         id="LineCollection_4">
        <path
           d="M 244.69973,54.80216 V 24.087385"
           clip-path="url(#pdbe3fd16af)"
           style="fill:none;stroke:#27ae60;stroke-width:1.1"
           id="path118" />
      </g>
      <g
         id="line2d_19">
        <g
           clip-path="url(#pdbe3fd16af)"
           id="g119">
          <use
             xlink:href="#mf8311fad42"
             x="244.69974"
             y="54.802158"
             style="fill:#1f77b4;stroke:#27ae60"
             id="use119" />
        </g>
      </g>
      <g
         id="line2d_20">
        <g
           clip-path="url(#pdbe3fd16af)"
           id="g120">
          <use
             xlink:href="#mf8311fad42"
             x="244.69974"
             y="24.087385"
             style="fill:#1f77b4;stroke:#27ae60"
             id="use120" />
        </g>
      </g>
    </g>
    <g
       id="axes_2">
      <g
         id="patch_9">
        <path
           d="m 314.17701,196.05256 h 186.624 V 19.796563 h -186.624 z"
           style="fill:#ffffff"
           id="path120" />
      </g>
      <g
         id="matplotlib.axis_3">
        <g
           id="text_16">
          <text
             style="font-size:9px;font-family:'Times New Roman', 'DejaVu Serif', serif;text-anchor:middle"
             x="407.48901"
             y="206.30194"
             id="text120">Prediction accuracy →</text>
        </g>
      </g>
      <g
         id="matplotlib.axis_4">
        <g
           id="text_17">
          <text
             style="font-size:9px;font-family:'Times New Roman', 'DejaVu Serif', serif;text-anchor:middle"
             x="308.23462"
             y="107.92456"
             transform="rotate(-90,308.23462,107.92456)"
             id="text121">Interpretability →</text>
        </g>
      </g>
      <g
         id="line2d_21">
        <path
           d="M 314.17701,196.05256 500.80101,19.796563"
           clip-path="url(#p290532a939)"
           style="fill:none;stroke:#95a5a6;stroke-width:0.8;stroke-dasharray:2.96, 1.28;stroke-dashoffset:0"
           id="path121" />
      </g>
      <g
         id="patch_10">
        <path
           d="M 314.17701,196.05256 V 19.796563"
           style="fill:none;stroke:#000000;stroke-width:0.8;stroke-linecap:square;stroke-linejoin:miter"
           id="path122" />
      </g>
      <g
         id="patch_11">
        <path
           d="m 314.17701,196.05256 h 186.624"
           style="fill:none;stroke:#000000;stroke-width:0.8;stroke-linecap:square;stroke-linejoin:miter"
           id="path123" />
      </g>
      <g
         id="patch_12">
        <path
           d="M 369.47588,155.39863 Q 350.20213,101.69382 379.64582,54.260894"
           style="fill:none;stroke:#1a1a1a;stroke-width:1.1;stroke-linecap:round"
           id="path124" />
        <path
           d="m 376.21788,56.370212 3.42794,-2.109318 -0.36931,4.007943 z"
           style="fill:#1a1a1a;stroke:#1a1a1a;stroke-width:1.1;stroke-linecap:round"
           id="path125" />
      </g>
      <g
         id="text_18">
        <text
           style="font-style:italic;font-size:7.6px;font-family:'Times New Roman', 'DejaVu Serif', serif;text-anchor:middle;fill:#1a1a1a"
           x="407.48901"
           y="224.25352"
           id="text125">Contribution = interpretability, not accuracy</text>
      </g>
      <g
         id="text_19">
        <text
           style="font-size:9.5px;font-family:'Times New Roman', 'DejaVu Serif', serif;text-anchor:start"
           x="314.177"
           y="-14.367199"
           id="text126">B. Contribution reframed</text>
      </g>
      <g
         id="PathCollection_2">
        <defs
           id="defs126">
          <path
             id="m4aa44ad636"
             d="m 0,4.743416 c 1.257969,0 2.464584,-0.499796 3.354102,-1.389314 C 4.24362,2.464584 4.743416,1.257969 4.743416,0 4.743416,-1.257969 4.24362,-2.464584 3.354102,-3.354102 2.464584,-4.24362 1.257969,-4.743416 0,-4.743416 c -1.257969,0 -2.464584,0.499796 -3.354102,1.389314 C -4.24362,-2.464584 -4.743416,-1.257969 -4.743416,0 c 0,1.257969 0.499796,2.464584 1.389314,3.354102 C -2.464584,4.24362 -1.257969,4.743416 0,4.743416 Z"
             style="stroke:#ffffff;stroke-width:1.2" />
        </defs>
        <g
           clip-path="url(#p290532a939)"
           id="g126">
          <use
             xlink:href="#m4aa44ad636"
             x="370.16422"
             y="157.27625"
             style="fill:#95a5a6;stroke:#ffffff;stroke-width:1.2"
             id="use126" />
        </g>
      </g>
      <g
         id="PathCollection_3">
        <defs
           id="defs127">
          <path
             id="m48c5779cff"
             d="m 0,4.743416 c 1.257969,0 2.464584,-0.499796 3.354102,-1.389314 C 4.24362,2.464584 4.743416,1.257969 4.743416,0 4.743416,-1.257969 4.24362,-2.464584 3.354102,-3.354102 2.464584,-4.24362 1.257969,-4.743416 0,-4.743416 c -1.257969,0 -2.464584,0.499796 -3.354102,1.389314 C -4.24362,-2.464584 -4.743416,-1.257969 -4.743416,0 c 0,1.257969 0.499796,2.464584 1.389314,3.354102 C -2.464584,4.24362 -1.257969,4.743416 0,4.743416 Z"
             style="stroke:#ffffff;stroke-width:1.2" />
        </defs>
        <g
           clip-path="url(#p290532a939)"
           id="g127">
          <use
             xlink:href="#m48c5779cff"
             x="448.5463"
             y="143.17577"
             style="fill:#2c6fb0;stroke:#ffffff;stroke-width:1.2"
             id="use127" />
        </g>
      </g>
      <g
         id="PathCollection_4">
        <defs
           id="defs128">
          <path
             id="mdaf38d986e"
             d="m 0,4.743416 c 1.257969,0 2.464584,-0.499796 3.354102,-1.389314 C 4.24362,2.464584 4.743416,1.257969 4.743416,0 4.743416,-1.257969 4.24362,-2.464584 3.354102,-3.354102 2.464584,-4.24362 1.257969,-4.743416 0,-4.743416 c -1.257969,0 -2.464584,0.499796 -3.354102,1.389314 C -4.24362,-2.464584 -4.743416,-1.257969 -4.743416,0 c 0,1.257969 0.499796,2.464584 1.389314,3.354102 C -2.464584,4.24362 -1.257969,4.743416 0,4.743416 Z"
             style="stroke:#ffffff;stroke-width:1.2" />
        </defs>
        <g
           clip-path="url(#p290532a939)"
           id="g128">
          <use
             xlink:href="#mdaf38d986e"
             x="381.36163"
             y="51.522644"
             style="fill:#c0392b;stroke:#ffffff;stroke-width:1.2"
             id="use128" />
        </g>
      </g>
      <g
         id="text_20">
        <text
           style="font-size:7.4px;font-family:'Times New Roman', 'DejaVu Serif', serif;text-anchor:start;fill:#95a5a6"
           x="375.76294"
           y="153.75113"
           id="text128">Linear baseline</text>
      </g>
      <g
         id="text_21">
        <text
           style="font-size:7.4px;font-family:'Times New Roman', 'DejaVu Serif', serif;fill:#2c6fb0"
           transform="translate(454.14501,131.80592)"
           id="text129">Deep graph</text>
        <text
           style="font-size:7.4px;font-family:'Times New Roman', 'DejaVu Serif', serif;fill:#2c6fb0"
           transform="translate(454.14501,139.65064)"
           id="text130">(GEARS-like)</text>
      </g>
      <g
         id="text_22">
        <text
           style="font-size:7.4px;font-family:'Times New Roman', 'DejaVu Serif', serif;fill:#c0392b"
           transform="translate(386.96037,32.308077)"
           id="text131">Fixed graph +</text>
        <text
           style="font-size:7.4px;font-family:'Times New Roman', 'DejaVu Serif', serif;fill:#c0392b"
           transform="translate(386.96037,40.1528)"
           id="text132">linear readout</text>
        <text
           style="font-size:7.4px;font-family:'Times New Roman', 'DejaVu Serif', serif;fill:#c0392b"
           transform="translate(386.96037,47.997523)"
           id="text133">(this work)</text>
      </g>
    </g>
  </g>
  <defs
     id="defs134">
    <clipPath
       id="pdbe3fd16af">
      <rect
         x="49.793008"
         y="19.796563"
         width="207.36"
         height="176.256"
         id="rect133" />
    </clipPath>
    <clipPath
       id="p290532a939">
      <rect
         x="314.177008"
         y="19.796563"
         width="186.624"
         height="176.256"
         id="rect134" />
    </clipPath>
  </defs>
</svg>
